<?xml version="1.0" encoding="UTF-8"?>
<!DOCTYPE svg PUBLIC "-//W3C//DTD SVG 1.1//EN" "http://www.w3.org/Graphics/SVG/1.1/DTD/svg11.dtd">
<!-- Creator: CorelDRAW X7 -->
<svg xmlns="http://www.w3.org/2000/svg" xml:space="preserve" width="55.0237mm" height="13.3638mm" version="1.1" style="shape-rendering:geometricPrecision; text-rendering:geometricPrecision; image-rendering:optimizeQuality; fill-rule:evenodd; clip-rule:evenodd"
viewBox="0 0 599 146"
 xmlns:xlink="http://www.w3.org/1999/xlink">
 <defs>
  <style type="text/css">
   <![CDATA[
    .fil0 {fill:black}
    .fil1 {fill:black;fill-rule:nonzero}
   ]]>
  </style>
 </defs>
 <g id="Layer_x0020_1">
  <metadata id="CorelCorpID_0Corel-Layer"/>
  <g id="_578667724944">
   <path class="fil0" d="M81 67c-1,-6 -7,-7 -12,-3 -1,1 0,1 1,2 3,1 5,3 10,1 1,0 0,0 0,0 -2,0 -5,-1 -8,-2 2,-1 3,-1 4,-2 0,1 0,2 0,2 0,1 1,2 2,2 1,-1 2,-1 2,-2 0,0 1,1 1,2 0,0 0,0 0,0z"/>
   <path class="fil0" d="M89 77c0,0 -1,1 -1,1 0,1 -1,1 -1,1 1,0 1,0 2,0 2,-1 2,0 2,-1 0,-1 -1,-1 -2,-1z"/>
   <path class="fil0" d="M93 78c0,0 -2,1 -1,2 0,0 0,0 0,0 0,0 1,-1 1,-2 0,0 0,0 0,0z"/>
   <path class="fil0" d="M68 138c-1,0 -2,1 -1,2 0,1 1,2 2,1 1,0 2,-1 1,-2 0,-1 -1,-2 -2,-1z"/>
   <path class="fil0" d="M64 140c-1,0 -2,1 -2,2 1,1 2,2 3,2 1,0 2,-2 2,-3 -1,-1 -2,-2 -3,-1z"/>
   <path class="fil0" d="M59 140c-2,1 -2,2 -2,3 0,2 2,3 3,2 2,0 3,-1 2,-3 0,-1 -2,-2 -3,-2z"/>
   <path class="fil0" d="M54 138c-1,1 -2,2 -1,3 0,1 1,2 2,2 2,-1 2,-2 2,-3 0,-1 -1,-2 -3,-2z"/>
   <path class="fil0" d="M52 135c-1,1 -2,2 -2,3 1,1 2,1 3,1 1,0 1,-1 1,-2 0,-1 -1,-2 -2,-2z"/>
   <path class="fil0" d="M51 133c-1,0 -2,1 -1,1 0,1 0,1 1,1 1,0 1,-1 1,-1 0,-1 -1,-1 -1,-1z"/>
   <path class="fil0" d="M50 130c-1,0 -1,1 -1,2 0,0 1,1 1,1 1,0 1,-1 1,-2 0,-1 -1,-1 -1,-1z"/>
   <path class="fil0" d="M49 128c-1,0 -1,1 -1,1 0,1 1,1 2,1 0,0 1,-1 1,-1 -1,-1 -1,-1 -2,-1z"/>
   <path class="fil0" d="M49 125c-1,0 -1,1 -1,2 0,0 1,1 1,1 1,-1 1,-1 1,-2 0,-1 -1,-1 -1,-1z"/>
   <path class="fil0" d="M48 123c0,0 -1,0 -1,1 0,1 1,1 2,1 1,0 1,-1 1,-1 0,-1 -1,-2 -2,-1z"/>
   <path class="fil0" d="M48 120c-1,0 -1,1 -1,2 0,0 1,1 2,0 0,0 1,0 0,-1 0,-1 0,-1 -1,-1z"/>
   <path class="fil0" d="M56 84c1,0 2,0 2,-1 0,-1 -1,-2 -2,-2 -1,0 -2,1 -2,2 0,1 1,1 2,1z"/>
   <path class="fil0" d="M55 98c2,0 3,-1 3,-3 0,-2 -1,-3 -3,-3 -1,0 -1,0 -2,1 0,0 0,0 0,0 0,0 0,0 0,0 0,0 0,0 0,0 0,0 0,0 0,0 0,0 0,0 0,0 0,0 0,0 0,0 0,0 0,0 0,0 0,0 0,0 0,0 0,0 0,0 0,0 0,0 0,0 0,0 0,0 0,0 0,0 0,0 0,0 0,0 0,0 0,0 0,0 0,0 0,0 0,0 0,0 0,0 0,0 0,0 0,0 0,0 0,0 0,0 0,0 0,0 0,0 0,0 0,0 0,0 0,0 0,0 0,0 0,0 0,0 0,0 0,0 0,0 0,0 0,0 0,0 0,0 0,0 0,0 0,0 0,0 0,0 0,0 0,0 0,0 0,0 0,0 0,0 0,0 0,0 0,0 0,0 0,0 0,0 0,0 -1,0 0,0 0,0 0,0 0,0 0,0 0,0 0,0 0,0 0,0 0,0 0,0 0,0 0,0 0,0 0,0 0,0 0,0 0,0 0,0 0,0 0,0 0,0 0,0 0,0 0,0 0,0 0,0 0,0 0,0 0,0 0,0 0,0 0,0 0,0 0,0 0,0 0,0 0,0 0,0 0,0 0,0 0,0 0,0 0,0 0,0 0,0 0,0 0,0 0,0 0,0 0,0 0,0 0,0 0,0 0,0 0,1 0,1 0,0 0,0 0,0 0,0 0,0 0,0 0,0 0,0 0,0 0,0 0,0 0,0 0,0 0,0 0,0 0,0 0,0 0,0 0,0 0,0 0,0 0,0 0,0 0,0 0,0 0,0 0,0 0,0 0,0 0,0 0,0 0,0 0,0 0,0 0,0 0,0 0,0 0,0 0,0 0,0 0,0 0,0 0,0 0,0 0,0 0,0 0,0 0,0 0,0 0,0 0,0 0,0 0,0 0,0 0,0 0,0 0,0 0,0 0,0 0,0 0,0 0,0 0,0 0,0 0,0 0,0 0,0 0,0 0,0 0,0 0,0 0,0 0,0 0,0 0,0 0,0 0,0 0,0 0,0 0,0 0,0 0,0 0,0 0,0 0,0 0,0 0,0 0,0 0,0 0,0 0,0 0,0 0,0 0,0 0,0 0,0 0,0 0,0 0,0 0,0 0,0 0,0 0,0 0,0 0,0 0,0 0,0 0,0 0,0 0,0 0,1 0,0 0,0 0,0 0,0 0,0 0,0 0,0 0,0 0,0 0,0 0,0 0,0 0,0 0,0 0,0 0,0 0,0 0,0 0,0 0,0 0,0 0,0 0,0 0,0 0,0 0,0 0,0 0,0 0,0 0,0 0,0 0,0 0,0 0,0 0,0 0,0 0,0 0,0 0,0 0,0 0,0 0,0 0,0 0,0 0,0 0,0 0,0 0,0 0,0 0,0 0,0 0,0 0,0 0,0 0,0 0,0 0,0 0,0 0,0 0,0 0,0 0,0 0,0 0,0 0,0 0,0 0,0 0,0 0,0 0,0 0,0 0,0 0,0 0,0 0,0 0,0 0,0 0,0 0,0 0,0 0,0 0,0 0,0 0,0 0,0 0,0 0,0 0,0 0,0 0,0 0,0 0,0 0,0 0,1 0,1 0,1 0,0 0,0 0,0 0,0 0,0 0,0 0,0 0,0 0,0 0,0 0,0 0,0 0,0 0,0 0,0 0,0 0,0 0,0 0,0 0,0 0,0 0,0 0,0 0,0 0,0 0,0 0,0 0,0 0,0 0,0 0,0 0,0 0,0 0,0 0,0 0,0 0,0 0,0 0,0 0,0 0,0 0,0 0,0 0,0 0,0 0,0 0,0 0,0 0,0 0,0 0,0 0,0 0,0 0,0 0,0 0,0 0,0 0,0 0,0 0,0 0,0 0,0 0,0 0,0 0,0 0,0 0,0 0,0 0,0 0,0 0,0 0,0 0,0 0,0 0,0 0,0 0,0 0,0 0,0 0,0 0,0 0,0 0,0 0,0 0,0 0,0 0,0 0,0 0,0 0,0 0,0 0,0 0,0 0,0 0,0 0,0 0,0 0,0 0,0 0,0 0,0 0,1 0,0 0,0 0,0 0,0 0,0 0,0 0,0 0,0 0,0 0,0 0,0 0,0 0,0 0,0 0,0 0,0 0,0 0,0 0,0 0,0 0,0 0,0 0,0 0,0 0,0 0,0 0,0 0,0 0,0 0,0 0,0 0,0 0,0 0,0 0,0 0,0 0,0 0,0 0,0 0,0 0,0 0,0 0,0 0,0 0,0 0,0 0,0 0,0 0,0 0,0 0,0 1,0 1,0 1,0 0,0 0,0 0,0 0,0 0,0 0,0 0,0 0,0 0,0 0,0 0,0 0,0 0,0 0,0 0,0 0,0 0,0 0,0 0,0 0,0 0,0 0,0 0,0 0,0 0,0 0,0 0,0 0,0 0,0 0,0 0,0 0,0 0,0 0,0 0,0 0,0 0,0 0,0 0,0 0,0 0,0 0,0 0,0 0,0 0,0 0,0 0,0 0,0 0,0 0,0 0,0 0,0 0,0 0,0 0,0 0,0 0,0 0,0 0,0 0,0 0,0 0,0 0,0 0,0 0,0 0,0 0,0 0,0 0,0 0,0 0,0 0,0 0,0 0,0 0,0 0,0 0,0 0,1 0,0 0,0 0,0 0,0 0,0 0,0 0,0 0,0 0,0 0,0 0,0 0,0 0,0 0,0 0,0 0,0 0,0 0,0 0,0 0,0 0,0 0,0 0,0 0,0 0,0 0,0 0,0 0,0 0,0 0,0 0,0 0,0 0,0 1,0 1,0 2,0z"/>
   <path class="fil0" d="M56 91c2,0 3,-1 3,-3 0,-1 -2,-3 -3,-3 -2,0 -3,2 -3,3 0,2 1,3 3,3z"/>
   <path class="fil0" d="M50 110c0,0 -1,1 -1,2 0,0 1,0 1,0 0,0 0,1 0,1 0,-1 -1,-1 -1,-1 -1,1 -1,1 -1,2 0,1 1,1 1,1 0,0 0,0 0,0 0,0 -1,0 -1,0 -1,0 -1,1 -1,1 0,1 1,1 1,1 0,0 0,0 0,0 0,0 0,0 0,0 -1,1 -1,1 -1,2 0,0 0,1 1,1 1,0 1,-1 1,-2 0,0 0,0 0,0 0,-1 0,-1 0,-1 0,0 1,-1 1,-1 2,-5 4,-11 5,-15 1,0 1,0 1,0 2,0 5,-3 5,-5 0,-3 -3,-5 -5,-5 -1,0 -2,0 -2,1 -1,-1 -1,-1 -2,-2 -11,-14 16,-7 10,-26 -3,-13 17,-11 21,-11 5,-1 7,-3 9,-8 7,3 9,10 9,18 0,0 0,0 0,0 -1,-1 -2,-1 -3,-2 -1,0 -1,0 -2,0 0,1 -1,1 -2,1 -3,3 1,2 3,1 0,0 1,0 1,0 1,0 2,0 2,0 0,1 1,1 1,1 0,1 0,3 -1,4 0,-1 -1,-2 -4,-1 -1,0 -3,1 -4,1 0,0 -1,0 0,1 0,-1 2,-2 3,-1 0,0 0,0 0,0 -1,0 -1,1 -1,1 1,1 2,2 3,2 0,-1 1,-1 1,-2 0,0 0,0 0,0 0,1 1,1 0,2 0,0 0,0 0,0 0,0 0,0 0,0 -1,0 -3,0 -4,-1 0,0 -2,0 -2,0 0,1 1,0 2,1 0,0 2,0 3,1 0,0 2,1 2,1 0,3 1,4 1,7 -1,4 -4,10 -5,12 -1,2 -2,3 -2,5 -1,2 -1,2 -3,3 -2,1 -2,1 -4,1 -9,1 -22,-6 -25,-9 5,5 16,10 23,10 -1,3 -2,7 1,11 0,0 0,1 0,1 0,0 0,1 1,1 0,0 0,0 -1,0 0,0 -1,1 -1,2 1,0 1,0 1,0 0,0 0,0 0,0 -1,1 -2,1 -1,2 0,0 0,1 0,1 0,0 0,0 0,0 -1,0 -2,1 -1,1 0,1 0,1 0,1 0,0 0,0 -1,0 0,0 -1,1 -1,2 0,0 1,0 1,0 -1,0 -1,0 -1,0 -1,1 -1,1 -1,2 0,0 0,0 0,1 0,-1 0,-1 -1,0 0,0 -1,0 0,1 0,0 0,1 0,1 0,0 -1,0 -1,0 -1,0 -1,1 -1,1 0,0 0,1 0,1 0,0 0,0 -1,0 0,0 -1,1 -1,1 0,0 1,1 1,1 -1,0 -1,0 -1,0 -1,0 -2,1 -1,1 0,0 0,1 0,1 0,-1 -1,-1 -1,-1 -1,1 -1,1 -1,2 0,0 0,0 0,1 0,-1 -1,-1 -1,-1 -1,0 -1,1 -1,2 0,1 1,1 2,1 0,0 1,-1 0,-2 0,0 0,0 0,0 1,0 1,0 1,0 1,0 2,-1 1,-2 0,0 0,0 0,0 0,0 1,0 1,0 1,0 1,-1 1,-1 0,-1 0,-1 0,-1 0,0 1,0 1,0 1,0 1,-1 1,-1 0,-1 0,-1 0,-1 0,0 0,0 1,0 0,0 1,-1 1,-1 -1,-1 -1,-1 -1,-1 1,0 1,0 1,0 1,0 1,-1 1,-2 0,0 0,0 0,0 0,0 0,0 1,0 0,0 1,-1 1,-2 -1,0 -1,0 -1,0 0,0 1,0 1,0 1,0 1,-1 1,-2 0,0 0,0 -1,-1 1,0 1,0 1,0 1,0 1,-1 1,-1 0,-1 0,-1 0,-1 0,0 0,0 0,0 1,0 1,-1 1,-2 0,0 0,0 0,0 0,0 0,0 0,0 1,-1 1,-1 1,-2 0,0 0,-1 -1,-1 0,0 1,0 1,0 0,0 0,0 0,0l1 -1c0,0 0,0 0,-1 -1,0 -1,-1 -2,-1 0,0 0,0 0,0 0,0 0,0 0,0 0,0 0,0 0,0 1,0 1,-1 1,-1 0,-1 -1,-1 -2,-1 0,0 0,0 0,0 -1,-2 -1,-5 1,-8 3,0 6,-1 6,-1 0,0 0,0 0,0 2,-2 2,-5 4,-9 1,-2 3,-8 4,-11 1,-3 -1,-5 -1,-8 0,0 0,0 0,0 0,0 0,0 0,0 1,-1 1,-2 1,-2 2,-5 5,-16 2,-24 -2,-4 -5,-8 -10,-9 0,0 -1,0 -1,0 -7,-10 -36,-3 -45,8 -4,5 -5,12 -6,13 -21,24 6,45 11,49 0,1 0,2 0,2 0,0 -1,0 -1,0z"/>
   <path class="fil0" d="M68 13c-26,6 -47,28 -55,53 9,-24 30,-44 55,-50 21,-5 40,2 50,18 -9,-18 -28,-27 -50,-21z"/>
   <path class="fil0" d="M66 2c36,-9 65,14 65,50 0,23 -11,46 -29,62 15,-15 25,-36 25,-57 0,-35 -27,-56 -60,-48 -34,8 -61,43 -61,77 0,24 13,42 32,48 -22,-6 -38,-25 -38,-51 0,-37 29,-73 66,-81z"/>
   <path class="fil0" d="M80 87c2,2 8,5 11,4 2,0 3,0 3,-3 0,-1 0,-2 0,-2 -1,-2 -2,-1 -3,-1 -1,0 -2,-1 -3,-1 -3,2 -5,2 -8,3z"/>
   <path class="fil0" d="M66 62c4,-4 4,-4 8,-6 1,0 2,0 3,1 1,0 2,0 3,1 2,0 3,1 4,1 1,1 3,4 0,3 0,0 -1,0 -1,-1 -1,0 -1,0 -1,0 -1,-1 -2,-1 -3,-2 -1,0 -2,-1 -3,-2 -1,0 -1,0 -2,0 -3,2 -5,3 -8,5z"/>
  </g>
  <path class="fil1" d="M162 102c0,-3 -2,-4 -5,-4 -3,0 -6,2 -6,6 0,3 2,4 4,4 4,0 7,-2 7,-6zm-9 2c0,-3 2,-5 4,-5 2,0 3,1 3,3 0,4 -2,5 -5,5 -1,0 -2,-1 -2,-3zm11 -5c1,0 1,1 1,2l-2 7 2 0 1 -6c1,-1 2,-3 4,-3 1,0 2,1 2,3l-1 4c0,2 1,3 3,2l0 -1c-1,0 -1,0 -1,-1l1 -4c0,-2 -1,-4 -3,-4 -2,0 -4,1 -4,2 0,-2 -1,-2 -3,-2l0 1zm15 9l2 -8 3 0 1 -2 -9 0 0 2 3 0 -1 8 1 0zm17 -6c0,-3 -3,-4 -5,-4 -3,0 -6,2 -6,6 0,3 2,4 4,4 3,0 7,-2 7,-6zm-10 2c0,-3 3,-5 5,-5 2,0 3,1 3,3 0,4 -3,5 -5,5 -1,0 -3,-1 -3,-3zm18 -11c-2,0 -4,1 -5,4l-2 11c1,0 3,0 4,1 3,0 6,-2 6,-6 1,-1 0,-3 -2,-3 2,-1 3,-2 3,-3 0,-3 -1,-4 -4,-4zm-4 8c1,0 2,0 3,0 2,0 3,0 3,2 0,3 -2,4 -5,4 -1,0 -1,0 -2,0l1 -6zm1 -4c0,-2 2,-3 3,-3 2,0 3,1 2,3 0,2 -4,2 -6,3l1 -3zm17 7c0,-1 -2,-2 -4,-2 -1,0 -2,0 -2,1l0 -5 -1 0 -2 7c0,2 2,3 4,3 2,0 5,-1 5,-4zm-5 3c-1,0 -2,-1 -2,-2 0,-2 2,-2 3,-2 1,0 2,0 2,1 0,2 -2,3 -3,3zm10 -9l-2 0 -2 10 2 0 2 -10zm5 -4c0,1 1,2 3,2 2,0 3,-1 3,-2 0,0 -1,0 -1,0 0,1 -1,1 -2,1 -1,0 -2,0 -2,-1l-1 0zm-1 10c-1,2 0,3 1,3 2,0 4,-1 4,-3l1 -6 2 0 -2 8c0,1 0,1 1,1l0 1c-2,0 -3,0 -2,-1 -1,1 -3,1 -4,1 -3,0 -4,-1 -3,-4 0,-3 1,-4 1,-4 0,0 0,0 0,0 -1,-1 -1,-1 -1,0l0 -2c2,0 3,0 2,2l0 4zm18 -4c1,-2 0,-2 -2,-2l-1 2c1,-1 1,-1 1,0 1,0 1,0 1,0 0,0 -1,1 -1,4 -1,3 0,4 3,4 1,0 2,0 4,-1 -1,1 0,1 2,1l0 -1c-1,0 -1,0 -1,-1l2 -8 -2 0 -1 6c-1,2 -2,3 -4,3 -2,0 -2,-1 -2,-3l1 -4zm20 -2l-1 0 -1 4 -6 0 1 -2c0,-2 -1,-2 -3,-2 0,1 0,1 0,2 1,-1 1,-1 1,0 0,0 0,0 0,0 0,0 0,3 -1,8l1 0 1 -4 6 0 -1 2c0,2 1,3 3,2l0 -1c-1,0 -1,0 -1,-1l1 -8zm6 10l2 -8 3 0 0 -2 -8 0 -1 2 4 0 -2 8 2 0zm14 -2c-1,1 -3,1 -4,1 -2,0 -4,-1 -3,-4 1,1 2,1 4,1 2,0 4,-1 4,-3 1,-2 -1,-3 -3,-3 -3,0 -5,2 -6,5 -1,3 0,5 4,5 1,0 2,0 4,0l0 -2zm-7 -4c1,-2 3,-3 4,-3 2,0 3,1 3,2 -1,2 -2,2 -3,2 -1,0 -3,0 -4,-1zm12 2c0,-2 2,-5 4,-5 2,0 3,2 3,4 -1,2 -2,4 -5,4 -1,0 -2,-1 -2,-3zm-2 9l1 -7c1,2 2,2 3,2 3,0 6,-2 6,-5 0,-3 -1,-5 -4,-5 -1,0 -3,1 -3,2l0 0c0,-2 -1,-2 -3,-2l0 1c1,0 1,1 1,2l-3 12 2 0zm23 -15l-2 0 -1 4 -5 0 0 -2c1,-2 0,-2 -2,-2 0,1 -1,1 -1,2 1,-1 1,-1 2,0 0,0 0,0 0,0 0,0 -1,3 -2,8l2 0 0 -4 6 0 0 2c-1,2 0,3 2,2l0 -1c-1,0 -1,0 -1,-1l2 -8zm10 8c-1,1 -2,1 -4,1 -2,0 -3,-1 -3,-4 1,1 3,1 4,1 2,0 4,-1 4,-3 1,-2 -1,-3 -3,-3 -3,0 -5,2 -6,5 -1,3 1,5 4,5 1,0 3,0 4,0l0 -2zm-6 -4c0,-2 2,-3 4,-3 1,0 2,1 2,2 0,2 -2,2 -3,2 -1,0 -3,0 -3,-1zm12 6l2 -8 4 0 0 -2 -9 0 0 2 3 0 -1 8 1 0zm7 -6l7 0 0 -1 -7 0 0 1zm14 4l4 -4 -1 6c0,0 1,0 1,0 1,-3 2,-7 3,-10l-1 0 -6 6 -3 -6 -1 0c0,3 -1,7 -2,10 1,0 1,0 2,0l1 -6 3 4 0 0zm18 -7c-1,-1 -2,-1 -3,-1 -4,0 -6,2 -7,5 -1,3 0,5 3,5 2,0 4,0 5,-2l-1 0c0,2 1,2 3,2l0 -1c-1,0 -1,-1 -1,-2l1 -6zm-2 4c-1,2 -2,4 -4,4 -2,0 -3,-2 -2,-4 0,-2 2,-4 4,-4 1,0 2,1 3,1l-1 3zm11 2c-1,2 -2,2 -3,2 -2,0 -3,0 -3,-1 0,-2 2,-2 3,-2 2,-1 5,-1 5,-3 0,-2 -1,-3 -3,-3 -2,0 -5,1 -5,3l1 0c1,-1 2,-2 3,-2 2,0 3,1 2,2 0,1 -1,1 -2,1 -3,1 -5,1 -5,4 0,2 1,2 4,2 2,0 4,-1 4,-3l-1 0zm14 -6c-1,-1 -2,-1 -4,-1 -3,0 -6,2 -6,5 -1,3 0,5 3,5 2,0 3,0 4,-2l0 0c0,2 1,2 2,2l1 -1c-2,0 -2,-1 -1,-2l1 -6zm-2 4c-1,2 -3,4 -5,4 -2,0 -2,-2 -2,-4 1,-2 3,-4 5,-4 1,0 1,1 2,1l0 3zm5 -3c1,0 2,-1 3,-1 1,0 2,1 2,2 0,1 -1,1 -3,1 0,0 0,0 -1,0l0 2c0,0 1,0 1,0 1,0 3,0 3,1 0,2 -2,2 -3,2 -2,0 -3,0 -4,-1l0 1c1,1 2,1 4,1 2,0 5,-1 5,-3 0,-1 -1,-2 -2,-2 1,0 2,-1 2,-3 0,-1 -2,-2 -3,-2 -2,0 -3,0 -4,1l0 1zm12 0c0,-2 -1,-2 -3,-2l0 2c1,-1 1,-1 1,0 0,0 0,0 0,0 0,0 0,1 -1,4 0,3 1,4 3,4 2,0 3,0 4,-1 0,1 1,1 3,1l0 -1c-1,0 -1,0 -1,-1l1 -8 -1 0 -1 6c-1,2 -2,3 -4,3 -2,0 -2,-1 -2,-3l1 -4zm20 -2l-1 0 -1 4 -6 0 0 -2c1,-2 0,-2 -2,-2 0,1 0,1 0,2 0,-1 1,-1 1,0 0,0 0,0 0,0 0,0 -1,3 -2,8l2 0 1 -4 5 0 0 2c-1,2 0,3 2,2l1 -1c-2,0 -2,0 -1,-1l1 -8z"/>
  <path class="fil1" d="M163 67l6 -26 -9 0 -9 44 8 0 3 -12 2 0c1,0 2,0 3,0l4 12 9 0 0 -1 -6 -14c7,-3 9,-8 10,-14l-8 0c-1,6 -4,11 -10,11l-3 0zm34 -7c1,-5 -5,-5 -10,-4l-1 5c3,-1 3,1 2,4 -2,11 -2,9 -4,20l8 0 3 -15c1,-5 5,-8 9,-8 2,0 4,1 5,2l3 -7c-1,-2 -3,-2 -5,-2 -4,0 -8,2 -10,5zm45 -2c-4,-2 -8,-3 -12,-3 -10,0 -18,5 -21,15 -2,9 1,16 10,16 4,0 8,-2 11,-6 -1,6 4,6 9,5l1 -5c-3,0 -3,-2 -2,-4l4 -18zm-12 13c-1,4 -4,7 -8,7 -5,0 -6,-3 -4,-8 1,-5 5,-8 10,-8 1,0 3,0 4,1l-2 8zm12 5c-1,8 5,10 12,10 6,0 14,-2 15,-10 2,-7 -5,-8 -12,-9 -2,0 -4,0 -4,-2 0,-2 3,-4 6,-4 2,0 4,1 4,3l8 0c1,-6 -4,-9 -11,-9 -7,0 -14,3 -15,10 -1,7 6,8 12,9 2,0 4,0 4,2 -1,3 -4,4 -6,4 -3,0 -5,-1 -5,-4l-8 0zm62 -9c0,-8 -6,-12 -13,-12 -9,0 -19,6 -19,19 0,8 6,12 13,12 9,0 19,-6 19,-19zm-24 5c1,-7 6,-10 10,-9 3,0 6,2 5,6 0,6 -5,10 -9,9 -3,0 -6,-2 -6,-6zm43 -25l-7 0 -3 9 -6 0 -1 6 5 0 -2 12c-3,12 6,14 17,11l0 -7c-5,2 -10,2 -9,-4l3 -12 9 0 2 -6 -10 0 2 -9zm39 11c-4,-2 -8,-3 -12,-3 -10,0 -18,5 -20,15 -2,9 1,16 10,16 4,0 8,-2 10,-6 -1,6 5,6 9,5l1 -5c-3,0 -2,-2 -2,-4l4 -18zm-11 13c-1,4 -4,7 -8,7 -5,0 -6,-3 -5,-8 2,-5 6,-8 10,-8 2,0 3,0 5,1l-2 8zm13 2l17 0 1 -7 -17 0 -1 7zm18 3c-1,8 5,10 12,10 7,0 14,-2 15,-10 2,-7 -5,-8 -12,-9 -1,0 -3,0 -3,-2 0,-2 2,-4 5,-4 2,0 4,1 4,3l8 0c2,-6 -4,-9 -11,-9 -7,0 -13,3 -15,10 -1,7 6,8 12,9 2,0 4,0 4,2 -1,3 -4,4 -6,4 -3,0 -5,-1 -4,-4l-9 0zm48 -29l-7 0 -3 9 -6 0 -1 6 6 0 -3 12c-2,12 6,14 17,11l0 -7c-5,2 -10,2 -9,-4l3 -12 10 0 1 -6 -10 0 2 -9zm4 51c11,7 27,4 30,-12l7 -30 -9 0 -2 12c-1,4 -3,11 -8,11 -5,0 -5,-4 -4,-8l2 -8c1,-8 -4,-9 -11,-7 0,2 -1,3 -1,5 3,0 3,1 3,4l-2 6c-2,9 0,15 9,15 4,0 7,-1 9,-5l-1 5c-2,11 -14,9 -20,6l-2 6zm45 -58l-7 34c-2,11 3,13 12,11l1 -6c-4,1 -6,0 -5,-5l8 -34 -9 0zm35 37c-3,1 -7,2 -10,2 -6,0 -10,-2 -9,-7 3,2 6,2 9,2 6,0 12,-3 13,-9 2,-7 -5,-10 -11,-10 -9,0 -19,6 -19,19 0,8 6,12 15,12 3,0 7,-1 11,-3l1 -6zm-17 -10c2,-4 4,-5 8,-5 2,0 5,0 4,3 0,2 -3,3 -5,3 -3,1 -6,0 -7,-1zm24 19c3,0 6,-2 6,-5 0,-3 -1,-4 -4,-4 -3,0 -6,2 -6,5 0,3 2,4 4,4zm36 -30l-4 17c0,4 -4,6 -7,6 -3,0 -5,-2 -4,-6l4 -17 -9 0 -3 17c-2,7 -1,13 8,13 3,0 8,-2 10,-5 -1,6 6,5 10,4l1 -5c-3,0 -2,-1 -2,-4l4 -20 -8 0zm42 2c-3,-2 -7,-3 -12,-3 -10,0 -18,5 -20,15 -2,9 1,16 10,16 4,0 8,-2 11,-6 -2,6 4,6 8,5l1 -5c-3,0 -2,-2 -2,-4l4 -18zm-11 13c-1,4 -4,7 -8,7 -5,0 -6,-3 -5,-8 2,-5 6,-8 10,-8 2,0 4,0 5,1l-2 8z"/>
 </g>
</svg>
