<?xml version="1.0" encoding="utf-8"?>
<!-- Generator: Adobe Illustrator 19.1.0, SVG Export Plug-In . SVG Version: 6.00 Build 0)  -->
<svg version="1.1" id="Layer_1" xmlns="http://www.w3.org/2000/svg" xmlns:xlink="http://www.w3.org/1999/xlink" x="0px" y="0px"
	 viewBox="0 0 612 792" style="enable-background:new 0 0 612 792;" xml:space="preserve">
<g>
	<path d="M314.9,380.8c-0.2-2.3-1.3-4.3-2.8-5.8c-1.8-1.8-4.2-2.8-6.9-2.8c-2.7,0-5.1,1.1-6.9,2.8c-1.5,1.5-2.5,3.5-2.8,5.8H314.9
		L314.9,380.8z M293.4,380.8c0.3-2.8,1.5-5.4,3.4-7.3c2.1-2.1,5.1-3.5,8.4-3.5c3.3,0,6.2,1.3,8.4,3.5c1.9,1.9,3.2,4.5,3.4,7.3h5.2h1
		l0.1,1l3.1,40.1l0.1,1.1h-1.1h-40.1H284l0.1-1.1l3.1-40.1l0.1-1h1H293.4L293.4,380.8z M321.2,382.9h-32l-2.9,38h37.8L321.2,382.9
		L321.2,382.9z M299.1,393.7h12.1h1l0.1,1l1.1,14.4l0.1,1.1h-1.1H298h-1.1l0.1-1.1l1.1-14.4l0.1-1H299.1L299.1,393.7z M310.3,395.8
		h-10.2l-0.9,12.2h12.1L310.3,395.8L310.3,395.8z"/>
</g>
</svg>
