<svg xmlns="http://www.w3.org/2000/svg" width="17" height="16" viewBox="0 0 17 16">
  <defs>
    <style>
      .cls-1 {
        fill-rule: evenodd;
      }
    </style>
  </defs>
  <path id="Shape_24_copy_3" data-name="Shape 24 copy 3" class="cls-1" d="M1244.19,1591.61h8.53a0.5,0.5,0,0,0,.12-0.02h0.19a0.652,0.652,0,0,0,.61-0.53l1.33-5.5a0.749,0.749,0,0,0-.61-0.99l-10.7-.01-0.73-1.7a2.758,2.758,0,0,0-2.57-1.86h-1.5a0.9,0.9,0,0,0,0,1.8h1.5a1.031,1.031,0,0,1,.94.66l2.52,6.86a2.239,2.239,0,0,0-1.82,2.11,2.123,2.123,0,0,0,2.25,1.96h0.33a1.354,1.354,0,0,0-1.01,1.28,1.412,1.412,0,0,0,2.82,0,1.354,1.354,0,0,0-1.01-1.28h6.84a1.352,1.352,0,0,0-1.02,1.28,1.418,1.418,0,0,0,2.83,0,1.352,1.352,0,0,0-1.02-1.28h0.87a0.666,0.666,0,1,0,0-1.33h-9.63a0.749,0.749,0,0,1-.83-0.63A0.85,0.85,0,0,1,1244.19,1591.61Z" transform="translate(-1238 -1581)"/>
</svg>
