<?xml version="1.0" encoding="UTF-8" standalone="no"?>
<!-- Created with Inkscape (http://www.inkscape.org/) -->

<svg
   xmlns:dc="http://purl.org/dc/elements/1.1/"
   xmlns:cc="http://creativecommons.org/ns#"
   xmlns:rdf="http://www.w3.org/1999/02/22-rdf-syntax-ns#"
   xmlns:svg="http://www.w3.org/2000/svg"
   xmlns="http://www.w3.org/2000/svg"
   xmlns:sodipodi="http://sodipodi.sourceforge.net/DTD/sodipodi-0.dtd"
   xmlns:inkscape="http://www.inkscape.org/namespaces/inkscape"
   width="723.08093"
   height="581.16351"
   id="svg2"
   version="1.1"
   inkscape:version="0.48.4 r9939"
   sodipodi:docname="bizhut1svg.svg">
  <defs
     id="defs4" />
  <sodipodi:namedview
     id="base"
     pagecolor="#ffffff"
     bordercolor="#666666"
     borderopacity="1.0"
     inkscape:pageopacity="0.0"
     inkscape:pageshadow="2"
     inkscape:zoom="0.175"
     inkscape:cx="-102.6371"
     inkscape:cy="24.445533"
     inkscape:document-units="px"
     inkscape:current-layer="g2986"
     showgrid="false"
     fit-margin-top="0"
     fit-margin-left="0"
     fit-margin-right="0"
     fit-margin-bottom="0"
     inkscape:window-width="551"
     inkscape:window-height="408"
     inkscape:window-x="794"
     inkscape:window-y="519"
     inkscape:window-maximized="0" />
  <metadata
     id="metadata7">
    <rdf:RDF>
      <cc:Work
         rdf:about="">
        <dc:format>image/svg+xml</dc:format>
        <dc:type
           rdf:resource="http://purl.org/dc/dcmitype/StillImage" />
        <dc:title></dc:title>
      </cc:Work>
    </rdf:RDF>
  </metadata>
  <g
     inkscape:label="Layer 1"
     inkscape:groupmode="layer"
     id="layer1"
     transform="translate(-21.14338,-15.013582)">
    <g
       id="g2986"
       transform="matrix(14.084994,0,0,14.084994,-3915.953,-5200.5055)">
      <g
         id="g3030"
         transform="matrix(0.77856329,0,0,0.77856329,66.850339,82.295822)">
        <path
           id="path3032"
           d="m 316.7,379.7 c -0.2,-0.3 -0.3,-0.5 -0.5,-0.8 -2.3,-3.3 -5.9,-5.8 -10.2,-6.6 -4.3,-0.8 -8.5,0.3 -11.9,2.6 -3.3,2.3 -5.8,5.9 -6.6,10.2 l 0,0 c -0.8,4.3 0.3,8.5 2.6,11.9 1.8,2.6 4.5,4.7 7.6,5.9 -0.5,-1.7 -0.8,-3.4 -0.8,-5.3 0,-5 2,-9.5 5.3,-12.7 3.3,-3.3 7.7,-5.3 12.7,-5.3 0.6,0 1.2,0 1.8,0.1 l 0,0 z m -27.4,19.7 -3.1,2.2 c 0.6,1.2 0.8,2.6 0.6,4 v 0 l 0,0.1 c -0.3,1.9 -1.4,3.4 -2.9,4.4 -1.4,1 -3.2,1.4 -5,1.1 h 0 l -0.1,0 c -1.9,-0.3 -3.4,-1.4 -4.4,-2.9 -1,-1.4 -1.5,-3.3 -1.1,-5.2 0.3,-1.9 1.4,-3.4 2.9,-4.4 1.4,-1 3.3,-1.5 5.2,-1.1 1.5,0.3 2.9,1 3.8,2.1 l 3,-2.1 c -2.4,-3.7 -3.4,-8.2 -2.6,-12.8 v 0 l 0,-0.1 c 0.9,-4.9 3.7,-8.9 7.4,-11.6 3.8,-2.6 8.6,-3.8 13.4,-2.9 4.9,0.9 8.9,3.7 11.6,7.4 0.5,0.8 1,1.6 1.4,2.4 3.2,0.8 6.1,2.5 8.3,4.7 3.3,3.3 5.3,7.7 5.3,12.7 0,4.9 -2,9.4 -5.2,12.6 l 0.4,0.4 c 1.1,-0.8 2.5,-1.3 4,-1.3 1.9,0 3.6,0.8 4.9,2 v 0 c 1.2,1.2 2,3 2,4.9 0,1.9 -0.8,3.6 -2,4.9 v 0 c -1.2,1.2 -3,2 -4.9,2 -1.9,0 -3.6,-0.8 -4.9,-2 l 0,0 c -1.3,-1.3 -2,-3 -2,-4.9 0,-1.6 0.5,-3 1.4,-4.2 l -0.5,-0.5 c -3.1,2.4 -7,3.9 -11.2,3.9 -5,0 -9.5,-2 -12.7,-5.3 -1.4,-1.4 -2.6,-3.1 -3.5,-4.9 -3.9,-0.6 -7.2,-2.7 -9.5,-5.6 l 0,0 z m 34.4,6.8 2.5,2.5 c 0.8,-0.9 1.4,-2 1.6,-2.9 0.3,-1.1 0.1,-2.2 -0.5,-2.9 l 0,0 c -0.6,-0.7 -1.6,-1 -2.8,-0.8 -1.3,0.2 -2.7,0.8 -4,1.9 l 0,0 c -1.3,1.1 -2.1,2.5 -2.4,3.7 -0.3,1.1 -0.1,2.1 0.4,2.9 v 0 l 0,0 0,0 c 0.6,0.7 1.7,1 2.8,0.8 1,-0.1 2.1,-0.6 3.2,-1.3 l -2.4,-2.4 1.6,-1.5 0,0 z m -41.1,2.2 c 1,-0.7 1.7,-1.8 2,-3.1 l 0,0 c 0.2,-1.3 -0.1,-2.6 -0.8,-3.6 -0.7,-1 -1.8,-1.7 -3.1,-2 -1.3,-0.2 -2.6,0.1 -3.6,0.8 -1,0.7 -1.7,1.8 -2,3.1 -0.2,1.3 0.1,2.6 0.8,3.6 0.7,1 1.8,1.7 3.1,2 l 0,0 c 1.3,0.2 2.6,-0.1 3.6,-0.8 l 0,0 z m 52.9,4.5 0,0 c -0.9,-0.9 -2.1,-1.4 -3.4,-1.4 -1.3,0 -2.5,0.5 -3.4,1.4 -0.9,0.9 -1.4,2.1 -1.4,3.4 0,1.3 0.5,2.5 1.4,3.4 h 0 c 0.9,0.9 2.1,1.4 3.4,1.4 1.3,0 2.5,-0.5 3.4,-1.4 l 0,0 c 0.9,-0.9 1.4,-2.1 1.4,-3.4 0,-1.3 -0.6,-2.5 -1.4,-3.4 l 0,0 z m -6.6,-11.4 c 0.4,0.5 0.7,1 0.9,1.6 0.6,-1.7 1,-3.6 1,-5.5 0,-4.4 -1.8,-8.3 -4.6,-11.2 -2.9,-2.9 -6.8,-4.6 -11.2,-4.6 -4.4,0 -8.3,1.8 -11.2,4.6 -2.9,2.9 -4.6,6.8 -4.6,11.2 0,4.4 1.8,8.3 4.6,11.2 2.9,2.9 6.8,4.6 11.2,4.6 1.2,0 2.4,-0.1 3.5,-0.4 -0.5,-0.3 -1,-0.6 -1.4,-1.1 l 0,0 0,0 0,0 c -1.1,-1.3 -1.4,-3 -1,-4.8 0.4,-1.7 1.4,-3.4 3,-4.8 l 0,0 0,0 0,0 c 1.6,-1.4 3.4,-2.2 5.2,-2.4 1.8,-0.2 3.5,0.3 4.6,1.6 l 0,0 0,0 0,0 z"
           inkscape:connector-curvature="0" />
      </g>
    </g>
  </g>
</svg>
