<?xml version="1.0" encoding="utf-8"?>
<!-- Generator: Adobe Illustrator 19.1.0, SVG Export Plug-In . SVG Version: 6.00 Build 0)  -->
<svg version="1.1" id="Layer_1" xmlns="http://www.w3.org/2000/svg" xmlns:xlink="http://www.w3.org/1999/xlink" x="0px" y="0px"
	 viewBox="0 0 612 792" style="enable-background:new 0 0 612 792;" xml:space="preserve">
<g>
	<path d="M316.7,379.7c-0.2-0.3-0.3-0.5-0.5-0.8c-2.3-3.3-5.9-5.8-10.2-6.6c-4.3-0.8-8.5,0.3-11.9,2.6c-3.3,2.3-5.8,5.9-6.6,10.2
		l0,0c-0.8,4.3,0.3,8.5,2.6,11.9c1.8,2.6,4.5,4.7,7.6,5.9c-0.5-1.7-0.8-3.4-0.8-5.3c0-5,2-9.5,5.3-12.7c3.3-3.3,7.7-5.3,12.7-5.3
		C315.5,379.6,316.1,379.6,316.7,379.7L316.7,379.7z M289.3,399.4l-3.1,2.2c0.6,1.2,0.8,2.6,0.6,4v0l0,0.1c-0.3,1.9-1.4,3.4-2.9,4.4
		c-1.4,1-3.2,1.4-5,1.1h0l-0.1,0c-1.9-0.3-3.4-1.4-4.4-2.9c-1-1.4-1.5-3.3-1.1-5.2c0.3-1.9,1.4-3.4,2.9-4.4c1.4-1,3.3-1.5,5.2-1.1
		c1.5,0.3,2.9,1,3.8,2.1l3-2.1c-2.4-3.7-3.4-8.2-2.6-12.8v0l0-0.1c0.9-4.9,3.7-8.9,7.4-11.6c3.8-2.6,8.6-3.8,13.4-2.9
		c4.9,0.9,8.9,3.7,11.6,7.4c0.5,0.8,1,1.6,1.4,2.4c3.2,0.8,6.1,2.5,8.3,4.7c3.3,3.3,5.3,7.7,5.3,12.7c0,4.9-2,9.4-5.2,12.6l0.4,0.4
		c1.1-0.8,2.5-1.3,4-1.3c1.9,0,3.6,0.8,4.9,2v0c1.2,1.2,2,3,2,4.9c0,1.9-0.8,3.6-2,4.9v0c-1.2,1.2-3,2-4.9,2c-1.9,0-3.6-0.8-4.9-2
		l0,0c-1.3-1.3-2-3-2-4.9c0-1.6,0.5-3,1.4-4.2l-0.5-0.5c-3.1,2.4-7,3.9-11.2,3.9c-5,0-9.5-2-12.7-5.3c-1.4-1.4-2.6-3.1-3.5-4.9
		C294.9,404.4,291.6,402.3,289.3,399.4L289.3,399.4z M323.7,406.2l2.5,2.5c0.8-0.9,1.4-2,1.6-2.9c0.3-1.1,0.1-2.2-0.5-2.9l0,0
		c-0.6-0.7-1.6-1-2.8-0.8c-1.3,0.2-2.7,0.8-4,1.9l0,0c-1.3,1.1-2.1,2.5-2.4,3.7c-0.3,1.1-0.1,2.1,0.4,2.9v0l0,0l0,0
		c0.6,0.7,1.7,1,2.8,0.8c1-0.1,2.1-0.6,3.2-1.3l-2.4-2.4L323.7,406.2L323.7,406.2z M282.6,408.4c1-0.7,1.7-1.8,2-3.1l0,0
		c0.2-1.3-0.1-2.6-0.8-3.6c-0.7-1-1.8-1.7-3.1-2c-1.3-0.2-2.6,0.1-3.6,0.8c-1,0.7-1.7,1.8-2,3.1c-0.2,1.3,0.1,2.6,0.8,3.6
		c0.7,1,1.8,1.7,3.1,2l0,0C280.3,409.4,281.6,409.1,282.6,408.4L282.6,408.4z M335.5,412.9L335.5,412.9c-0.9-0.9-2.1-1.4-3.4-1.4
		c-1.3,0-2.5,0.5-3.4,1.4c-0.9,0.9-1.4,2.1-1.4,3.4c0,1.3,0.5,2.5,1.4,3.4h0c0.9,0.9,2.1,1.4,3.4,1.4c1.3,0,2.5-0.5,3.4-1.4l0,0
		c0.9-0.9,1.4-2.1,1.4-3.4C336.9,415,336.3,413.8,335.5,412.9L335.5,412.9z M328.9,401.5c0.4,0.5,0.7,1,0.9,1.6c0.6-1.7,1-3.6,1-5.5
		c0-4.4-1.8-8.3-4.6-11.2c-2.9-2.9-6.8-4.6-11.2-4.6c-4.4,0-8.3,1.8-11.2,4.6c-2.9,2.9-4.6,6.8-4.6,11.2c0,4.4,1.8,8.3,4.6,11.2
		c2.9,2.9,6.8,4.6,11.2,4.6c1.2,0,2.4-0.1,3.5-0.4c-0.5-0.3-1-0.6-1.4-1.1l0,0l0,0l0,0c-1.1-1.3-1.4-3-1-4.8c0.4-1.7,1.4-3.4,3-4.8
		l0,0l0,0l0,0c1.6-1.4,3.4-2.2,5.2-2.4C326.1,399.7,327.8,400.2,328.9,401.5L328.9,401.5L328.9,401.5L328.9,401.5z"/>
</g>
</svg>
