<?xml version="1.0" encoding="utf-8"?>
<!-- Generator: Adobe Illustrator 19.1.0, SVG Export Plug-In . SVG Version: 6.00 Build 0)  -->
<svg version="1.1" id="Layer_1" xmlns="http://www.w3.org/2000/svg" xmlns:xlink="http://www.w3.org/1999/xlink" x="100px" y="10	0px"
	 viewBox="0 0 612 792" style="enable-background:new 0 0 612 792;" xml:space="preserve">
<g>
	<path d="M314.3,408.4h-13.2c-4.5,0-8.6-1.8-11.6-4.8c-2.9-2.9-4.8-7-4.8-11.4l-5.6-13.4c-0.2-0.5,0-1.2,0.6-1.4
		c0.5-0.2,1.2,0,1.4,0.6l5.4,12.9h21.3v-19.8c0-0.6,0.5-1.1,1.1-1.1c6.1,0,11.6,2.5,15.5,6.4c4,4,6.4,9.5,6.4,15.5
		c0,4.5-1.8,8.6-4.8,11.6C323,406.5,318.8,408.4,314.3,408.4L314.3,408.4z M315.9,410.5c1.9,0,3.5,0.8,4.8,2v0c1.2,1.2,2,2.9,2,4.8
		c0,1.9-0.8,3.5-2,4.8c-1.2,1.2-2.9,2-4.8,2c-1.9,0-3.5-0.8-4.8-2c-1.2-1.2-2-2.9-2-4.8c0-1.9,0.8-3.5,2-4.8v0
		C312.3,411.3,314,410.5,315.9,410.5L315.9,410.5z M319.1,414L319.1,414c-0.8-0.8-2-1.4-3.3-1.4c-1.3,0-2.4,0.5-3.3,1.4l0,0
		c-0.8,0.8-1.4,2-1.4,3.3c0,1.3,0.5,2.4,1.4,3.3c0.8,0.8,2,1.4,3.3,1.4c1.3,0,2.4-0.5,3.3-1.4c0.8-0.8,1.4-2,1.4-3.3
		C320.5,416,320,414.8,319.1,414L319.1,414z M298.2,410.5c1.9,0,3.5,0.8,4.8,2l0,0c1.2,1.2,2,2.9,2,4.8c0,1.9-0.8,3.5-2,4.8h0
		c-1.2,1.2-2.9,2-4.8,2c-1.9,0-3.5-0.8-4.8-2c-1.2-1.2-2-2.9-2-4.8c0-1.9,0.8-3.5,2-4.8v0C294.7,411.3,296.4,410.5,298.2,410.5
		L298.2,410.5z M301.5,414c-0.8-0.8-2-1.4-3.3-1.4c-1.3,0-2.4,0.5-3.3,1.4l0,0c-0.8,0.8-1.4,2-1.4,3.3c0,1.3,0.5,2.4,1.4,3.3
		c0.8,0.8,2,1.4,3.3,1.4c1.3,0,2.4-0.5,3.3-1.4l0,0c0.8-0.8,1.4-2,1.4-3.3C302.9,416,302.3,414.8,301.5,414L301.5,414z M309.9,389.1
		l11.1-12.8c-3.1-2.4-7-4-11.1-4.2V389.1L309.9,389.1z M322.6,377.7l-11.5,13.2h17.5c-0.3-5.1-2.4-9.6-5.8-13
		C322.8,377.9,322.7,377.8,322.6,377.7L322.6,377.7z M301.1,406.3h13.2c3.9,0,7.5-1.6,10.1-4.2c2.4-2.4,3.9-5.5,4.2-9h-41.8
		c0.3,3.5,1.8,6.7,4.2,9C293.6,404.7,297.2,406.3,301.1,406.3L301.1,406.3z"/>
</g>
</svg>
