<?xml version="1.0" encoding="UTF-8" standalone="no"?>
<!-- Created with Inkscape (http://www.inkscape.org/) -->

<svg
   xmlns:dc="http://purl.org/dc/elements/1.1/"
   xmlns:cc="http://creativecommons.org/ns#"
   xmlns:rdf="http://www.w3.org/1999/02/22-rdf-syntax-ns#"
   xmlns:svg="http://www.w3.org/2000/svg"
   xmlns="http://www.w3.org/2000/svg"
   xmlns:sodipodi="http://sodipodi.sourceforge.net/DTD/sodipodi-0.dtd"
   xmlns:inkscape="http://www.inkscape.org/namespaces/inkscape"
   width="533.02136"
   height="556.95715"
   id="svg2"
   version="1.1"
   inkscape:version="0.48.4 r9939"
   sodipodi:docname="bizhut1.svg">
  <defs
     id="defs4" />
  <sodipodi:namedview
     id="base"
     pagecolor="#ffffff"
     bordercolor="#666666"
     borderopacity="1.0"
     inkscape:pageopacity="0.0"
     inkscape:pageshadow="2"
     inkscape:zoom="0.175"
     inkscape:cx="-111.03534"
     inkscape:cy="11.495532"
     inkscape:document-units="px"
     inkscape:current-layer="g2986"
     showgrid="false"
     fit-margin-top="0"
     fit-margin-left="0"
     fit-margin-right="0"
     fit-margin-bottom="0"
     inkscape:window-width="551"
     inkscape:window-height="408"
     inkscape:window-x="794"
     inkscape:window-y="519"
     inkscape:window-maximized="0" />
  <metadata
     id="metadata7">
    <rdf:RDF>
      <cc:Work
         rdf:about="">
        <dc:format>image/svg+xml</dc:format>
        <dc:type
           rdf:resource="http://purl.org/dc/dcmitype/StillImage" />
        <dc:title></dc:title>
      </cc:Work>
    </rdf:RDF>
  </metadata>
  <g
     inkscape:label="Layer 1"
     inkscape:groupmode="layer"
     id="layer1"
     transform="translate(-29.541625,-26.269948)">
    <g
       id="g2986"
       transform="matrix(14.084994,0,0,14.084994,-3915.953,-5200.5055)">
      <g
         id="g3081"
         transform="matrix(0.73091664,0,0,0.73091664,76.176418,100.64907)">
        <path
           id="path3083"
           d="m 314.3,408.4 h -13.2 c -4.5,0 -8.6,-1.8 -11.6,-4.8 -2.9,-2.9 -4.8,-7 -4.8,-11.4 l -5.6,-13.4 c -0.2,-0.5 0,-1.2 0.6,-1.4 0.5,-0.2 1.2,0 1.4,0.6 l 5.4,12.9 h 21.3 v -19.8 c 0,-0.6 0.5,-1.1 1.1,-1.1 6.1,0 11.6,2.5 15.5,6.4 4,4 6.4,9.5 6.4,15.5 0,4.5 -1.8,8.6 -4.8,11.6 -3,3 -7.2,4.9 -11.7,4.9 l 0,0 z m 1.6,2.1 c 1.9,0 3.5,0.8 4.8,2 v 0 c 1.2,1.2 2,2.9 2,4.8 0,1.9 -0.8,3.5 -2,4.8 -1.2,1.2 -2.9,2 -4.8,2 -1.9,0 -3.5,-0.8 -4.8,-2 -1.2,-1.2 -2,-2.9 -2,-4.8 0,-1.9 0.8,-3.5 2,-4.8 v 0 c 1.2,-1.2 2.9,-2 4.8,-2 l 0,0 z m 3.2,3.5 0,0 c -0.8,-0.8 -2,-1.4 -3.3,-1.4 -1.3,0 -2.4,0.5 -3.3,1.4 l 0,0 c -0.8,0.8 -1.4,2 -1.4,3.3 0,1.3 0.5,2.4 1.4,3.3 0.8,0.8 2,1.4 3.3,1.4 1.3,0 2.4,-0.5 3.3,-1.4 0.8,-0.8 1.4,-2 1.4,-3.3 0,-1.3 -0.5,-2.5 -1.4,-3.3 l 0,0 z m -20.9,-3.5 c 1.9,0 3.5,0.8 4.8,2 l 0,0 c 1.2,1.2 2,2.9 2,4.8 0,1.9 -0.8,3.5 -2,4.8 h 0 c -1.2,1.2 -2.9,2 -4.8,2 -1.9,0 -3.5,-0.8 -4.8,-2 -1.2,-1.2 -2,-2.9 -2,-4.8 0,-1.9 0.8,-3.5 2,-4.8 v 0 c 1.3,-1.2 3,-2 4.8,-2 l 0,0 z m 3.3,3.5 c -0.8,-0.8 -2,-1.4 -3.3,-1.4 -1.3,0 -2.4,0.5 -3.3,1.4 l 0,0 c -0.8,0.8 -1.4,2 -1.4,3.3 0,1.3 0.5,2.4 1.4,3.3 0.8,0.8 2,1.4 3.3,1.4 1.3,0 2.4,-0.5 3.3,-1.4 l 0,0 c 0.8,-0.8 1.4,-2 1.4,-3.3 0,-1.3 -0.6,-2.5 -1.4,-3.3 l 0,0 z m 8.4,-24.9 11.1,-12.8 c -3.1,-2.4 -7,-4 -11.1,-4.2 v 17 l 0,0 z m 12.7,-11.4 -11.5,13.2 h 17.5 c -0.3,-5.1 -2.4,-9.6 -5.8,-13 0,0 -0.1,-0.1 -0.2,-0.2 l 0,0 z m -21.5,28.6 h 13.2 c 3.9,0 7.5,-1.6 10.1,-4.2 2.4,-2.4 3.9,-5.5 4.2,-9 h -41.8 c 0.3,3.5 1.8,6.7 4.2,9 2.6,2.6 6.2,4.2 10.1,4.2 l 0,0 z"
           inkscape:connector-curvature="0" />
      </g>
    </g>
  </g>
</svg>
