<svg xmlns="http://www.w3.org/2000/svg" width="25" height="21" viewBox="0 0 25 21">
  <defs>
    <style>
      .cls-1 {
        fill: white;
      }
    </style>
  </defs>
  <path id="Diamond_copy_2" data-name="Diamond copy 2" class="cls-1" d="M34,18.635a0.322,0.322,0,0,0-.02-0.05,0.431,0.431,0,0,0-.015-0.13L31.4,12.28A0.454,0.454,0,0,0,30.98,12H12.022a0.454,0.454,0,0,0-.417.281L9.034,18.455a0.5,0.5,0,0,0-.016.13c0,0.02-.018.03-0.018,0.05s0.01,0.017.01,0.027a0.466,0.466,0,0,0,.1.277l12.049,13.9c0.01,0.011.028,0.006,0.038,0.018a0.493,0.493,0,0,0,.1.078,0.123,0.123,0,0,0,.021.022,0.449,0.449,0,0,0,.363,0,0.1,0.1,0,0,0,.021-0.023,0.4,0.4,0,0,0,.1-0.077c0.011-.012.029-0.007,0.039-0.018l12.049-13.9a0.468,0.468,0,0,0,.1-0.277C33.99,18.652,34,18.645,34,18.635Zm-9.427-5.716,2.216,5.257H16.211l2.218-5.257h6.144Zm2.209,6.175L21.5,31.39l-5.281-12.3H26.782Zm-11.553,0,4.7,10.935L10.451,19.094h4.778Zm12.541,0h4.777L23.072,30.028Zm5.1-.918h-5.1l-2.216-5.257h5.123ZM12.321,12.919h5.126l-2.218,5.257h-5.1Z" transform="translate(-9 -12)"/>
</svg>
