<?xml version="1.0" encoding="utf-8"?>
<!-- Generator: Adobe Illustrator 19.1.0, SVG Export Plug-In . SVG Version: 6.00 Build 0)  -->
<svg version="1.1" id="Layer_1" xmlns="http://www.w3.org/2000/svg" xmlns:xlink="http://www.w3.org/1999/xlink" x="0px" y="0px"
	 viewBox="0 0 612 792" style="enable-background:new 0 0 612 792;" xml:space="preserve">
<style type="text/css">
	.st0{fill-rule:evenodd;clip-rule:evenodd;}
</style>
<g>
	<path class="st0" d="M296.3,411.4h18.5l-1.8,8.3c-0.1,0.6-0.2,0.9-0.3,1.4c-0.1,0.5-0.3,1-0.3,1.5h-13.6L296.3,411.4L296.3,411.4z
		 M286.4,395.1c0-1.7,1.7-1.1,1.7-0.4c0,0.4,0,0.7-0.2,1C287.3,396.2,286.4,395.6,286.4,395.1L286.4,395.1z M284.4,394.7
		c0,3.1,3.1,3.9,4.8,2.4c0.9-0.8,0.9-1.4,0.9-2.5c0-1.2-1.3-2.5-2.9-2.5C285.8,392,284.4,393.3,284.4,394.7L284.4,394.7z
		 M323.8,395.9c-1.1,0-1.3-1.9,0-1.9C325.1,394,325,395.9,323.8,395.9L323.8,395.9z M321,394.9c0,2.6,3,3.9,4.8,2.1
		c0.5-0.5,0.9-1.2,0.9-2c0.1-2.6-3.1-3.9-4.9-2.1C321.4,393.3,321,394,321,394.9L321,394.9z M302.8,382c0-1.8,1.2-2.8,3.1-2.8
		c1.2,0,2.5,1.3,2.5,2.5v0.5c0,1.2-1.2,2.5-2.8,2.5C304,384.7,302.8,383.5,302.8,382L302.8,382z M300.8,381.8c0,5.5,7,6.5,9,2.3
		c1.6-3.4-1.1-6.8-3.9-6.8h-0.5C303,377.2,300.8,379.4,300.8,381.8L300.8,381.8z M294.2,407.5h22.6v1.9h-22.6V407.5L294.2,407.5z
		 M291.1,392.6c0,1,1.5,1,1.9,1.2c1.4,0.7,1.6,2.9,0.2,3.8c-1.5,0.9-2.4-0.4-3,0.9c-0.1,0.3,0,0.7,0,1.4c0,2.2-3.3,2.7-4.1,0.7
		c-0.4-0.8,0-1.7-1.2-1.7c-0.3,0-2,1.1-3.3-0.2c-0.9-0.9-0.7-2.4,0.2-3.2c0.3-0.3,0.4-0.3,0.8-0.4c0.4-0.2,0.5-0.4,0.5-0.9
		c0-0.8-2.2-1.9-0.7-3.8c0.8-1,2.5-1,3.3-0.1c0.2,0.2,0.6,0.8,1.3,0.4c0.8-0.4,0.4-1.9,2.7-1.9c1.3,0,2,1.1,2,2.3
		C291.6,391.8,291.1,392.1,291.1,392.6L291.1,392.6z M319.5,390.9c0-1.5,0.9-2.3,2.4-2.3c1.8,0,1.8,2,2.5,2c1.8,0,0.6-1.1,2.9-1.1
		c0.6,0,1,0.2,1.3,0.6c0.8,0.9,0.9,2.2,0.2,3l-0.2,0.2c-1.4,1.3,0.6,2,0.8,2.1c1,0.8,1.1,2.3,0.3,3.2c-1.3,1.4-2.7,0.2-3.5,0.2
		c-1.6,0,0,2.9-3.3,2.9c-1,0-2-1-2-2c0,0,0.4-2-0.5-2c-1,0-1.6,0.3-2.4-0.3c-1.5-1-1.2-3,0.1-3.8c0.9-0.5,1.9,0.1,1.9-1.4
		C320,392.1,319.5,391.6,319.5,390.9L319.5,390.9z M301.8,374.6c0-1,0.5-1.9,1.1-2.4c1-1,1.5-1.2,3-1.2c1.9,0,3.5,1.8,3.5,3.7
		c0,0-0.3,1.5,0.9,1.5c0.7,0,0.3-0.4,2.2-0.4c2.1,0,3.9,2.1,3.5,4.2c-0.6,3.8-3.8,2.5-3.8,4.2c0,0.6,0.4,0.7,0.7,1.2
		c0.8,1.5,0.6,3.6-0.7,4.6c-1.8,1.5-4.3,1.4-5.7-0.6c-0.3-0.4-0.7-1.2-1.6-0.6c-0.2,0.1-0.2,0.2-0.4,0.4c-2.3,3.5-6.9,1.4-6.9-1.7
		c0-2.8,1.2-2.3,1.2-3.5c0-1.5-3.2-0.4-3.7-4.1c-0.4-2.8,2.5-4.8,4.8-4c0.2,0.1,1.1,0.7,1.7-0.2C302,375.2,301.8,375.1,301.8,374.6
		L301.8,374.6z M299.9,373.9c-1.1-0.5-3.3,0.2-4.2,0.8c-2.3,1.6-3.1,4.8-1.9,7.3c0.3,0.7,0.5,1,1.1,1.6c0.3,0.3,1.1,0.9,1.6,1.1
		c-2.6,4.8,2.4,10.5,8.1,7.5c0.3,3.5-0.1,7.2,0.1,10.7c0,0.4,0,0-0.1,0.3l-3.8-3.6c-2.6-1.9-3.7-1.7-5-2.3c0.6-1.3,0.2-3-0.5-4.1
		c-0.5-0.7-1.1-1-1.8-1.4c0.6-2.6-1.4-5.1-3.5-5.1c-0.8,0-1.8,0.1-2.5,0.4c-0.3,0.2-1,0.6-1.1,1c-0.6-0.1-1.1-0.5-2.2-0.6
		c-1.5-0.1-2.9,0.7-3.7,1.9c-0.9,1.4-0.7,3.1,0,4.5c-0.3,0.5-0.7,0.7-1,1.3c-1.2,2.3,0.1,5.2,2.5,5.9c0.5,0.1,1.7,0.2,2.2,0
		c0.3,1.2,2,2.6,3.5,2.6c1.4,0,2.4-0.2,3.4-1.2c0.6-0.6,1.1-1.5,1.1-2.6c0.4-0.1,0.9-0.1,1.2-0.3c0.4-0.2,0.8-0.5,1.2-0.5
		c2,0,5,1.8,6.4,3.2c0.4,0.4,0.6,0.4,1,1c0.4,0.6,1.5,1.5,1.6,2.3h-9.2c-2.8,0-2.2,0.2-2.2,4.8c0,1,1,1,2.1,1c0,0.6,0.2,1.1,0.4,1.7
		l2.2,10.3c0.1,0.3,0.1,0.5,0.2,0.8c0.1,0.2,0.4,0.5,0.6,0.5h15.6c0.9,0,1.1-2.4,1.2-2.9l1.8-8.6c0.1-0.6,0.3-1.2,0.4-1.7
		c2.7,0,2.1-0.3,2.1-4.8c0-1.1-1-1-2.1-1h-9.3c0.2-0.8,1.4-2.1,1.9-2.7c0.3-0.3,0.3-0.3,0.6-0.6c0.3-0.2,0.3-0.4,0.6-0.6
		c1.4-1.1,2.8-2.1,4.7-2.5c0.2-0.1,0.9-0.2,1-0.2c0.4,0,0.7,0.5,2.6,1c0,1.9,1.8,3.8,3.8,3.8h0.7c1.6,0,3.2-1.3,3.5-2.6
		c1.1,0.5,2.8-0.1,3.6-0.7c2.1-1.6,2.1-5.1,0.1-6.5c2.4-3.5-1.6-7.9-5.7-5.8c-0.4-0.3-0.7-0.6-1.2-0.9c-2.6-1.5-6.3,0.3-6.3,3.5
		c0,0.6,0.1,0.6,0.1,1.2c-1.6,0.1-3.3,3.2-2.3,5.2c-1.5,0-3.9,1.5-5.1,2.4c-1.1,0.8-2.1,1.6-2.9,2.7c-0.3,0.3-0.5,0.7-0.9,1
		c0-1.2,0.2-10.7,0-11c1.3,0.3,1.4,0.9,3.3,0.9c2.3,0,4-1.3,5-3.1c1.4-2.5,0.1-4.6,0-5.3c1-0.7,2-1.4,2.5-2.6
		c1.2-2.5,0.4-5.7-1.9-7.3c-1-0.7-3.1-1.4-4.2-0.8c0-2.4-2.7-4.9-5.1-4.9c-1.9,0-3.1,0.3-4.5,1.6
		C300.9,371.2,299.9,372.7,299.9,373.9L299.9,373.9z"/>
</g>
</svg>
