<?xml version="1.0" encoding="utf-8"?>
<!-- Generator: Adobe Illustrator 19.1.0, SVG Export Plug-In . SVG Version: 6.00 Build 0)  -->
<svg version="1.1" id="Layer_1" xmlns="http://www.w3.org/2000/svg" xmlns:xlink="http://www.w3.org/1999/xlink" x="0px" y="0px"
	 viewBox="0 0 612 792" style="enable-background:new 0 0 612 792;" xml:space="preserve">
<style type="text/css">
	.st0{fill-rule:evenodd;clip-rule:evenodd;}
</style>
<g>
	<path class="st0" d="M274.2,386.1c0-2.7,0-4.1,1.3-6.6c2.3-4.5,6.5-7.4,12.2-7.4c1.4,0,2.8,0.3,3.9,0.6c6.1,1.5,16.7,3.1,23.4,4.2
		l4,0.6v14.2c0,0.5-0.6,0.5-1.1,0.7c-5.7,1.8-16.8,5.6-22,5.6l-2.5,19.7c-0.1,0.8-0.3,2-0.4,2.8c-1,0-1.8,0.1-2.7,0.2l-4,0.4
		c-1.8,0-3.9,0.3-5.3,0l2.7-21c0.2-1,0.3-1-0.5-2.1c-0.5-0.7-0.7-0.5-1.8-1.1c-1-0.5-2.7-1.7-3.5-2.4l-1.3-1.6
		C275.4,391,274.2,388.3,274.2,386.1L274.2,386.1z M322.8,385.4c0.6,0.9,1.4,0.9,2.3,0.3c0.7-0.4,0.8-1.8,1.9-1.8
		c2.5,0,6.1,4.5,9.7,1.4c0.4-0.3,0.7-0.6,0.9-1l0.5-0.9c0.1-1-1.3-1.1-2.2-0.6c-1.2,0.7-0.4,2.6-5.1,0.2c-2-1.1-3.7-2.2-6.3-0.2
		C323.9,383.3,323,384.5,322.8,385.4L322.8,385.4z M323.5,389.3c0,0.8,1.5,1,2.3,0.3c0.7-0.6,0.7-2.4,3.2-1.4c2.4,1,5.4,3.5,8.4,1
		c0.5-0.4,2.8-2.7,0-2.7c-2.2,0-0.6,3.4-6.1,0.4c-1.4-0.8-1.6-1.1-3.5-1.1C325.5,385.8,323.5,388.3,323.5,389.3L323.5,389.3z
		 M322.6,380.8c0.5,0.7,0.4,0.6,1.5,0.6c1.7,0,1.2-2,2.8-2c2.5,0,6.4,4.8,10.1,1.1c0.4-0.4,1.5-1.6,0.9-2.2
		c-0.6-0.6-1.9-0.4-2.5,0.4c-1.7,2.3-3.6-0.1-6.2-1.1c-1.9-0.7-3.2-0.6-4.8,0.7C323.7,378.8,322.8,380,322.6,380.8L322.6,380.8z
		 M287.2,390.8c1.8,0,3-0.8,4-1.7c0.5-0.5,0.9-0.9,1.2-1.6c2.6-6-4.9-10.6-9.1-6.4c-1.6,1.6-2.1,4.1-1.2,6.2
		C282.8,389.1,284.7,390.8,287.2,390.8L287.2,390.8z M281.8,399.2l-2.6,19.7c-0.4,3.1-1.3,4.2,3.8,4.2c2.7,0,5.6-0.2,7.9-0.5
		c5.3-0.7,3.7,0.2,5.5-11.6l1.3-10.3c0.1-0.8-0.1-0.6,0.4-0.8l3.6-0.7c4.5-1,9.1-2.3,13.5-3.8l4.8-1.6c0.4-0.1,1.3-0.3,1.3-0.9
		v-16.8c0-0.6-0.4-0.4-1-0.5l-8.9-1.5c-3.4-0.7-6.7-1.1-10.1-1.7c-1.7-0.3-3.2-0.6-5-0.9c-2.2-0.4-5.6-1.3-7.4-1.5
		c-1.3-0.1-1.4-0.1-2.6,0c-1.8,0-3.5,0.6-4.8,1.1c-4,1.6-7.2,5.1-8.6,9.1c-0.4,1.2-1,3.8-0.9,5.1c0.6,5.8,2.7,9.8,7.7,12.8
		C280.5,398.6,281.1,398.8,281.8,399.2L281.8,399.2z"/>
</g>
</svg>
