<?xml version="1.0" encoding="utf-8"?>
<!-- Generator: Adobe Illustrator 19.1.0, SVG Export Plug-In . SVG Version: 6.00 Build 0)  -->
<svg version="1.1" xmlns="http://www.w3.org/2000/svg" xmlns:xlink="http://www.w3.org/1999/xlink" x="0px" y="0px"
	 viewBox="0 0 1321 245" style="enable-background:new 0 0 1321 245;" xml:space="preserve">
<style type="text/css">
	.st0{fill:#4A494A;}
	.st1{fill-rule:evenodd;clip-rule:evenodd;fill:#1F8FCE;}
</style>
<g id="a_2_">
	<path class="st0" d="M1285.5,134c-2.7,10.9-10.3,18.8-20.3,18.9c-11.4,0.1-13.9-6.9-10.6-19.6c3.4-13.2,12.9-20.1,24.1-20.1
		c3.6,0,7.9,0.4,11.5,2.1L1285.5,134L1285.5,134z M1312.5,103.2c-8.8-4-18.7-6.6-29.3-6.7c-24.1-0.4-43.8,12.4-49.5,36.8
		c-4.8,20.4,2.4,37.9,24.5,38.2c9.6,0.1,19.9-4.9,25.9-13.9c-3.1,14.8,11.1,14.1,21.2,12l2.8-13.5c-7.5,0.4-6.2-2.9-4.9-9
		L1312.5,103.2L1312.5,103.2z"/>
</g>
<g id="u">
	<path class="st0" d="M1209.3,98.1l-8.7,40.9c-2.1,9.7-9.7,15.9-18.1,15.9c-7.3,0-11.3-5.1-9.1-15.4l8.7-41.3h-21.1l-8.8,41.3
		c-3.8,18-0.6,31.9,20.1,31.9c9.1,0,19.6-3.1,25.6-11.5c-3.1,13.9,13.6,12.9,24.1,10.5l2.5-13c-6.4,0.5-6.2-1.9-4.8-8.7l10.6-50.4
		H1209.3L1209.3,98.1z"/>
</g>
<g id="_x2E_">
	<path class="st0" d="M1126.1,172.5c7.8,0,15.1-5.8,15.1-13.6c0-5.8-4.3-9.4-10.3-9.4c-7.8,0-15.1,5.5-15.1,13.6
		C1115.8,168.6,1120,172.5,1126.1,172.5L1126.1,172.5z"/>
</g>
<g id="e">
	<path class="st0" d="M1066.9,125.2c4-9,10.9-12.6,18.6-12.9c5.5-0.2,12.9,2.1,11.2,8.7c-1.3,5.4-6.9,7.7-12.9,7.9
		C1077.2,129.2,1069.6,127.1,1066.9,125.2L1066.9,125.2z M1107.7,149.6c-6.3,2.7-16.6,5.4-24.8,5.5c-13,0.3-22.4-4.2-20.1-16.6
		c5.5,3.6,13.9,5,22.1,4.6c13-0.5,28-7.4,31.7-22.1c4.7-18.7-12.4-25.3-28.7-24.8c-22,0.7-44.5,14.7-45.6,45.5
		c-0.8,20.3,13.9,30.9,35.6,30.1c9.4-0.4,18.1-1.3,27.1-6L1107.7,149.6L1107.7,149.6z"/>
</g>
<g id="l">
	<path class="st0" d="M1022.8,60.7l-17.5,82.2c-5.5,25.9,6.9,31.3,29.9,27.4l2.5-15.7c-10.5,1.6-14.2-0.6-11.8-11.7l17.5-82.2
		H1022.8L1022.8,60.7z"/>
</g>
<g id="ty">
	<path class="st0" d="M915.4,201.5c26,16,65.1,8.9,73.3-29.9l15.6-73.5h-20.6l-6.1,28.9c-2.1,9.7-6,27.1-20.1,27.1
		c-10.3,0-11.4-7.9-9.1-18.7l3.3-16.1c3.9-18.7-9.1-21-24.4-21H905l4.8-22.4h-20.5c-4.7,22.2-9.4,44.4-14.1,66.6
		c-6.3,29.8,15,33.5,41.2,26.8l1.3-15.9c-12.9,4.5-25.2,3.6-22-11.4l6-28c8.3,0,15.8,0,24.1,0c4.8,0.3,5.8,3.1,4.6,8.7
		c-4.7,20.6-12.5,48.8,19.3,48.8c9,0,16.9-2.5,21.8-10.9l-2.4,11.1c-5.8,26.7-34.7,23.2-49.7,14.2L915.4,201.5L915.4,201.5z"/>
</g>
<g id="s_1_">
	<path class="st0" d="M800.7,148.2c-3.1,19.2,12.3,23.6,28.6,23.9c15.9,0.4,33.6-6,37.6-23.6c4.4-19.3-13.5-20.7-29.3-22.6
		c-4.3-0.5-9.1-1-9.1-5.5c0-5.4,6.3-8.5,12.9-8.5c6,0,10.6,2.1,9.6,7.3h19.8c4-15.3-9.3-23-26.3-23c-17.4,0-33.1,6.8-36.1,23.8
		c-3,16.9,14.8,19.4,28.9,21.4c4.8,0.7,10.2,1.4,8.8,7.2c-1.5,6.5-8.5,8.2-14.7,8.2c-6,0-11.1-2.5-10-8.5H800.7L800.7,148.2z"/>
</g>
<g id="_x2D_">
	<polygon class="st0" points="759.1,139.3 795.5,139.3 798.9,123.6 762.5,123.6 759.1,139.3 	"/>
</g>
<g id="a_1_">
	<path class="st0" d="M727.6,134c-2.8,10.9-10.3,18.9-20.3,18.9c-11.4,0.2-13.8-6.9-10.6-19.6c3.6-13.2,12.9-20.1,24.1-20.1
		c3.6,0,7.9,0.4,11.5,2.1L727.6,134L727.6,134z M754.7,103.2c-8.8-4-18.7-6.6-29.3-6.7c-24.1-0.4-43.5,12.4-49.5,36.8
		c-4.5,20.5,2.4,37.7,24.5,38.2c9.6,0,19.9-4.9,25.9-13.9c-3.1,14.8,11.1,14.1,21.2,12l2.8-13.5c-7.5,0.4-6.1-2.8-4.9-9L754.7,103.2
		L754.7,103.2z"/>
</g>
<g id="t">
	<path class="st0" d="M659.2,75.8h-20.5c-4.7,22.2-9.4,44.4-14.1,66.6c-6.4,29.8,15,33.5,41.2,26.8l1.3-15.9
		c-12.9,4.5-25.1,3.6-22-11.4l6-28h23.5l3.3-15.7h-23.5L659.2,75.8L659.2,75.8z"/>
</g>
<g id="o">
	<path class="st0" d="M563.2,137.2c1.2-15.7,13.6-22.8,23.9-22.4c7.6,0.4,13.3,6,12.6,15.8c-1.2,15.4-13.9,23.1-23.9,22.4
		C568.5,152.6,562.5,147.2,563.2,137.2L563.2,137.2z M620.9,126.3c0-19.7-14.4-30.2-30.8-30.2c-22.3,0-47.7,15.4-47.7,45.4
		c0,19.7,14.7,30.2,31,30.2C596.2,171.7,620.9,157.1,620.9,126.3L620.9,126.3z"/>
</g>
<g id="s">
	<path class="st0" d="M469.6,148.2c-3.1,19.2,12.3,23.9,28.6,23.9c15.9,0.8,33.7-6,37.6-23.6c4.5-19.3-13.5-20.6-29.3-22.6
		c-4.3-0.4-9.1-1-9.1-5.5c0-5.4,6.3-8.5,12.9-8.5c6,0,10.6,2.1,9.6,7.3h19.8c4-15.3-9.3-23-26.3-23c-17.4,0-33.2,6.7-36.1,23.8
		c-3.1,16.9,14.8,19.5,28.9,21.4c4.8,0.8,10,1.3,8.8,7.2c-1.6,6.4-8.5,8.2-14.7,8.2c-6,0-11.1-2.5-10-8.5H469.6L469.6,148.2z"/>
</g>
<g id="a">
	<path class="st0" d="M441.1,134c-2.8,10.9-10.3,18.9-20.3,18.9c-11.4,0.2-13.8-6.9-10.6-19.6c3.6-13.2,12.9-20.1,24.1-20.1
		c3.6,0,7.9,0.4,11.5,2.1L441.1,134L441.1,134z M468.2,103.2c-8.8-4-18.7-6.6-29.3-6.7c-24.1-0.4-43.5,12.4-49.5,36.8
		c-4.5,20.5,2.4,37.7,24.5,38.2c9.6,0,19.9-4.9,25.9-13.9c-3.1,14.8,11.1,14.1,21.2,12l2.8-13.5c-7.5,0.4-6.1-2.8-4.9-9L468.2,103.2
		L468.2,103.2z"/>
</g>
<g id="r">
	<path class="st0" d="M360,108.1c1.6-12.9-13.9-12.9-24.8-10.5l-2.7,12.9c6.9-1.2,6.4,3,5.2,8.8c-6,28.6-4.8,22.1-10.8,50.9h20.5
		l8.2-38.5c2.4-11.2,11.5-17.7,20.7-17.7c4.6-0.1,8.8,1,12.6,3.9l8.4-17.5c-3.4-3.1-8.8-4.6-14.4-4.6
		C374.1,95.9,364.8,99.9,360,108.1L360,108.1z"/>
</g>
<g id="k">
	<path class="st0" d="M277.5,124.6L291,60.9h-20.8L247,170.2h20.8l6.1-29.1h4.8c2.2,0,4.3-0.3,6.3-0.9l10.8,30h21.1l0.4-2.1
		L304,133.6c15.9-7.8,21.8-20.2,24.7-35.7H309c-3.1,14.8-9.7,26.7-26.3,26.7H277.5L277.5,124.6z"/>
</g>
<g id="lips">
	<path class="st1" d="M132.6,145.3c3.7,3.5,12.7,7.9,18,6.7c2.3-0.5,4.7-1.1,4.6-5.2c0.7-1.5-0.2-2.5-0.7-3.4
		c-1.6-2.6-1.8-1.8-4.5-1c-1.2-0.9-2.1-2.1-3.6-1.3C141.5,143.5,137.8,143.5,132.6,145.3L132.6,145.3z"/>
</g>
<g id="Krug">
	<path class="st1" d="M110.3,10.2c57.5-13.4,104.1,22.4,104.1,79.9c0,36.3-18.6,72.5-46.7,97.7c24.3-23.8,40.1-57,40.1-90.1
		c0-54.7-43-88.8-96-76c-53,12.7-96,67.4-96,122.1c0,38.1,20.8,66.1,51.3,75.4c-36-8-61-38.5-61-80.6C6.1,81,52.7,23.6,110.3,10.2
		L110.3,10.2z"/>
</g>
<g id="krug_x5F_small">
	<path class="st1" d="M113.2,27.7C73,37.3,38.9,72.5,26.7,112.6c14.9-37.9,48.3-70,87.1-79.3c33.8-8.1,63.2,3.4,79.3,27.2
		C179,33.2,148.6,19.2,113.2,27.7L113.2,27.7z"/>
</g>
<g id="golova">
	<path class="st1" d="M85.6,182.5c-0.9,0.2-1.5,1.2-1.3,2.1c0.2,0.7,0.8,1.2,1.6,1.3c-0.1,0.2-0.1,0.4-0.2,0.7
		c-0.5-0.4-1.2-0.6-1.8-0.5c-1,0.3-1.7,1.3-1.4,2.4c0.2,0.9,1.1,1.5,2,1.5c-0.1,0.2-0.2,0.3-0.2,0.5c-0.5-0.5-1.2-0.7-1.9-0.5
		c-1,0.3-1.7,1.4-1.4,2.4c0.2,0.8,0.9,1.3,1.6,1.4c0,0.1-0.1,0.1-0.1,0.2c-0.2,0-0.4,0-0.6,0.1c-1,0.3-1.7,1.4-1.4,2.4
		c0.1,0.3,0.4,1.6,2.4,1.4c1.1-0.3,1.7-1.4,1.4-2.4c-0.1-0.5-0.5-0.9-0.9-1.2c0.2-0.2,0.3-0.5,0.4-0.7c0.6-0.4,1-1,1-1.7
		c4.1-7.5,7.4-17.3,9.2-24.7c0.3,0,0.6,0,1,0c2.8,0,7.3-3.3,7.3-7.4c0-4.1-3.3-7.3-7.4-7.3c-1.3,0-2.5,0.3-3.5,0.9
		c-1.4-1.2-1.4-1.4-2.2-2.3c-18-22.3,25.3-11,15.9-42.3C99,88,131.2,92.2,137.3,91.3c9.1-1.3,12.1-5.4,14.8-13
		c11.7,4.7,14.7,16.6,14.2,29c0-0.1-0.1-0.1-0.1-0.2c-1.4-0.9-2.9-1.8-4.3-2.7c-0.9,0.1-1.8,0.2-2.7,0.3c-1,0.4-2,0.8-3,1.2
		c-5,4.7,1,2.8,3.6,1.5c0.7-0.2,1.4-0.5,2.1-0.7c1.2,0.5,2.4,1,3.6,1.5c0.2,0.3,0.4,0.5,0.7,0.8c-0.1,2-0.4,4.1-0.7,6.1
		c-1-1.4-2.1-2.3-6.5-2.1c-2.2,0.1-6,1.7-6.5,2.4c-0.3,0.4-1.6,0.6-0.8,1.4c0.8-0.8,3.5-2.3,4.8-2.1c0,0,0.1,0,0.1,0
		c-0.5,0.7-0.7,1.6-0.4,2.6c0.4,1.6,2,2.6,3.5,2.2c1.2-0.3,2-1.4,2-2.7c0.1,0.2,0.3,0.4,0.4,0.7c0.4,0.7,0.5,1.4,0.2,2.1
		c0,0.1-0.2,0.1-0.3,0.1c-0.1,0-0.1,0-0.2,0c-1.4,0.4-5.6,0-6.4-0.6c-0.1-0.1-2.8-0.4-3.1-0.3c0.5,0.8,2.3,0.4,3.1,0.9
		c0,0,2.9,0.3,4.8,1.9c0.4,0.3,3.3,2,3.6,1.5c0.3,5.2,1.9,7,0.4,12c-1.6,5.1-5.3,14.5-7.6,18.4c-1.6,2.8-2.4,5-3,7.2
		c-1.2,3.9-0.8,4.2-5,5.9c-2.1,0.8-3,0.7-5.5,1.1c-15.2,1.2-34.9-10-39.6-14.6c8,8.3,24.4,15.5,36.2,16.4
		c-1.6,4.7-3.2,10.5,2.1,17.1c-0.5,0.5-0.8,1.3-0.6,2.1c0.2,0.6,0.6,1.1,1.1,1.4c-0.1,0-0.3,0-0.4,0.1c-1.1,0.3-1.8,1.5-1.5,2.6
		c0.1,0.5,0.4,0.9,0.9,1.2c-0.2,0-0.5,0-0.7,0.1c-1.1,0.3-1.8,1.5-1.5,2.6c0.1,0.5,0.4,0.9,0.7,1.1c-0.3-0.1-0.6,0-0.9,0
		c-1.1,0.3-1.8,1.5-1.5,2.6c0.1,0.4,0.3,0.8,0.7,1.1c-0.4-0.1-0.7-0.1-1.1,0c-1.1,0.3-1.8,1.5-1.5,2.6c0.1,0.4,0.3,0.7,0.6,1
		c-0.4-0.1-0.8-0.2-1.2,0c-1.1,0.3-1.8,1.5-1.5,2.6c0.1,0.4,0.3,0.7,0.6,1c-0.4-0.2-0.9-0.2-1.4-0.1c-1.1,0.3-1.8,1.4-1.5,2.6
		c0.1,0.4,0.3,0.7,0.5,0.9c-0.4-0.2-1-0.3-1.5-0.1c-1.1,0.3-1.8,1.4-1.5,2.6c0.1,0.3,0.3,0.6,0.5,0.9c-0.5-0.3-1-0.4-1.6-0.2
		c-1.1,0.3-1.8,1.4-1.5,2.6c0.1,0.3,0.2,0.6,0.4,0.8c-0.5-0.3-1.1-0.4-1.7-0.3c-1.1,0.3-1.8,1.4-1.5,2.6c0.1,0.3,0.2,0.6,0.4,0.8
		c-0.5-0.4-1.2-0.5-1.8-0.4c-1.1,0.3-1.8,1.4-1.5,2.5c0.1,0.3,0.2,0.5,0.4,0.7c-0.5-0.5-1.2-0.7-2-0.5c-1.1,0.3-1.8,1.4-1.5,2.5
		c0.3,1.1,1.4,1.8,2.5,1.5c1.1-0.3,1.8-1.4,1.5-2.5c-0.1-0.3-0.2-0.5-0.4-0.8c0.5,0.5,1.2,0.7,2,0.5c1.1-0.3,1.8-1.4,1.5-2.5
		c-0.1-0.3-0.2-0.6-0.4-0.8c0.5,0.4,1.2,0.5,1.8,0.4c1.1-0.3,1.8-1.4,1.5-2.6c-0.1-0.3-0.2-0.6-0.4-0.8c0.5,0.3,1.1,0.4,1.7,0.3
		c1.1-0.3,1.8-1.4,1.5-2.6c-0.1-0.3-0.3-0.6-0.5-0.9c0.5,0.3,1,0.4,1.6,0.2c1.1-0.3,1.8-1.4,1.5-2.6c-0.1-0.4-0.3-0.7-0.5-0.9
		c0.4,0.2,1,0.3,1.5,0.1c1.1-0.3,1.8-1.4,1.5-2.6c-0.1-0.4-0.3-0.7-0.5-0.9c0.4,0.2,0.9,0.2,1.4,0.1c1.1-0.3,1.8-1.5,1.5-2.6
		c-0.1-0.4-0.3-0.7-0.6-1c0.4,0.1,0.8,0.2,1.2,0.1c1.1-0.3,1.8-1.5,1.5-2.6c-0.1-0.4-0.3-0.8-0.7-1.1c0.4,0.1,0.7,0.1,1.1,0
		c1.1-0.3,1.8-1.5,1.5-2.6c-0.1-0.5-0.4-0.9-0.7-1.1c0.3,0.1,0.6,0,0.9,0c1.1-0.3,1.8-1.5,1.5-2.6c-0.1-0.5-0.4-0.9-0.9-1.2
		c0.2,0,0.5,0,0.7-0.1c1.1-0.3,1.8-1.5,1.5-2.6c-0.2-0.6-0.6-1.1-1.1-1.4c0.1,0,0.2,0,0.4-0.1c0.5-0.1,0.9-0.4,1.1-0.7l0.3-0.6
		c0.2-0.4,0.2-0.9,0.1-1.3c-0.3-1.2-1.5-1.8-2.6-1.5c-0.1,0-0.1,0-0.2,0.1c-0.1-0.1-0.1-0.2-0.2-0.3c0.2,0,0.4,0,0.6-0.1
		c1-0.3,1.6-1.3,1.3-2.3c-0.3-1-1.3-1.6-2.3-1.3c-0.2,0.1-0.5,0.2-0.7,0.3c-1.1-3.9-1.2-8,1.9-12.8c5-0.1,8.3-1.4,9.6-2.4l0,0
		c3.2-2.1,2.3-7.5,5.7-13.3c2.3-3.9,5.4-13.2,7-18.3c1.5-5-1.3-7.2-1.5-12.4c0,0,0,0,0,0c0,0,0,0,0,0c0.7-1.5,1.1-2.4,1.2-3.2
		c3.1-8.6,7.9-26.1,2.6-38.7c-2.7-6.3-7.4-11.3-15.5-13.6c-0.5-0.1-1-0.2-1.4-0.1C140,52.3,93.6,63,79.9,80.2
		c-6.5,8.2-9.2,19.4-10.2,20.4c-34.2,38.5,9.6,71.7,17.8,79c-0.2,1-0.4,2-0.6,2.9C86.5,182.4,86.1,182.4,85.6,182.5L85.6,182.5z"/>
	<path class="st1" d="M114.1,226.2c-1.7,0.4-2.7,2.2-2.2,3.8c0.4,1.7,2.2,2.7,3.8,2.2c1.7-0.4,2.7-2.2,2.2-3.8
		C117.5,226.7,115.8,225.7,114.1,226.2L114.1,226.2z"/>
	<path class="st1" d="M107.9,229.2c-1.9,0.5-3,2.4-2.5,4.3c0.5,1.9,2.4,3,4.3,2.5c1.9-0.5,3-2.4,2.5-4.3
		C111.7,229.8,109.8,228.7,107.9,229.2L107.9,229.2z"/>
	<path class="st1" d="M99.7,230.1c-2.3,0.6-3.7,3-3.1,5.3c0.6,2.3,3,3.7,5.3,3.1c2.3-0.6,3.7-3,3.1-5.3
		C104.4,230.9,102,229.5,99.7,230.1L99.7,230.1z"/>
	<path class="st1" d="M92.3,227.2c-2,0.5-3.1,2.5-2.6,4.5c0.5,2,2.5,3.1,4.5,2.6c2-0.5,3.1-2.5,2.6-4.5
		C96.3,227.9,94.3,226.7,92.3,227.2L92.3,227.2z"/>
	<path class="st1" d="M88.3,222.4c-1.6,0.4-2.6,2.1-2.1,3.7c0.4,1.6,2.1,2.6,3.7,2.1c1.6-0.4,2.6-2.1,2.1-3.7
		C91.5,222.9,89.9,222,88.3,222.4L88.3,222.4z"/>
	<path class="st1" d="M86.3,218.3c-1.1,0.3-1.7,1.4-1.4,2.5c0.3,1.1,1.4,1.7,2.5,1.4c1.1-0.3,1.7-1.4,1.4-2.5
		C88.5,218.7,87.4,218.1,86.3,218.3L86.3,218.3z"/>
	<path class="st1" d="M85,214.4c-1.1,0.3-1.7,1.4-1.4,2.4c0.3,1.1,1.4,1.7,2.4,1.4c1.1-0.3,1.7-1.4,1.4-2.4
		C87.2,214.8,86.1,214.1,85,214.4L85,214.4z"/>
	<path class="st1" d="M84,210.4c-1.1,0.3-1.7,1.4-1.4,2.4c0.3,1.1,1.4,1.7,2.4,1.4c1.1-0.3,1.7-1.4,1.4-2.4
		C86.2,210.7,85.1,210.1,84,210.4L84,210.4z"/>
	<path class="st1" d="M83.3,206.3c-1.1,0.3-1.7,1.4-1.4,2.4c0.3,1.1,1.4,1.7,2.4,1.4c1.1-0.3,1.7-1.4,1.4-2.4
		C85.4,206.7,84.3,206.1,83.3,206.3L83.3,206.3z"/>
	<path class="st1" d="M82.6,202.2c-1.1,0.3-1.7,1.4-1.4,2.4c0.3,1.1,1.4,1.7,2.4,1.4c1.1-0.3,1.7-1.4,1.4-2.4
		C84.8,202.6,83.7,202,82.6,202.2L82.6,202.2z"/>
	<path class="st1" d="M82.2,198.1c-1.1,0.3-1.7,1.4-1.4,2.4c0.3,1.1,1.4,1.7,2.4,1.4c1.1-0.3,1.7-1.4,1.4-2.4
		C84.3,198.5,83.3,197.9,82.2,198.1L82.2,198.1z"/>
</g>
<g id="nose">
	<path class="st1" d="M147.5,129.9c-0.9,0.3-1.8,1-2.2,1.6c-0.3,0.5-1.1,1-0.9,1.2c0.5,0.6,2-0.3,3.6-0.8c1.6-0.4,2.8,0,2.5-1.1
		C150.3,129.8,149.2,129.5,147.5,129.9L147.5,129.9z"/>
	<g id="Layer_7">
		<path class="st1" d="M153.2,130.9c-0.4,0.4-2.1,2.5-1.9,2.8c0.1,0.1,0.1,0.4,0.4,0.3c0.8-0.2,2.3-1.6,2.1-2.5
			C153.6,131,153.6,130.5,153.2,130.9L153.2,130.9z"/>
	</g>
</g>
<g id="glaz_x5F_l">
	<path class="st1" d="M135.2,112.9c-2.4-9.2-12.2-10.6-19.1-4.8c-2.2,1.8-1.3,3,1.4,3.8c4.8,1.5,8.3,5,16.1,2.4
		c0.3-0.1,0.1-0.2,0-0.2c-4.5-0.2-8.9-1.3-13.1-3.3c2.4-1.7,4.6-2.7,6.6-2.9c-0.6,0.7-0.9,1.8-0.7,2.8c0.4,1.7,2.1,2.6,3.8,2.2
		c1.4-0.4,2.4-1.7,2.3-3.1c0.9,0.8,1.7,1.8,2.5,3.2C135.2,113.1,135.3,113,135.2,112.9L135.2,112.9z"/>
</g>
<g id="brova_x5F_l">
	<path class="st1" d="M111.5,105.2c5.1-5.2,5.6-5.6,12.1-8.4c1.3,0,2.6,0.1,3.9,0.1c2.1,0.7,4.1,1.4,6.2,2.2
		c1.8,0.6,3.5,1.2,5.3,1.8c1.8,1.6,4.7,6.3,1.2,5c-1-0.4-2-0.8-3.1-1.2c-0.2-0.3-0.4-0.7-0.6-1c-1.6-0.7-3.2-1.5-4.7-2.2
		c-1.8-1.1-3.5-2.1-5.3-3.2c-1.1,0-2.1,0-3.2-0.1C118.4,100.6,115.9,102,111.5,105.2L111.5,105.2z"/>
</g>
</svg>
