<?xml version="1.0" encoding="utf-8"?>
<!-- Generator: Adobe Illustrator 19.1.0, SVG Export Plug-In . SVG Version: 6.00 Build 0)  -->
<svg version="1.1" id="Layer_1" xmlns="http://www.w3.org/2000/svg" xmlns:xlink="http://www.w3.org/1999/xlink" x="0px" y="0px"
	 viewBox="0 0 612 792" style="enable-background:new 0 0 612 792;" xml:space="preserve">
<g>
	<path d="M291.5,376c0,1.1,0.4,2,1.1,2.7l0,0c0.7,0.7,1.7,1.1,2.7,1.1h3.3h1.1h3.7c-0.8-2-1.6-3.8-2.8-5.1c-1.3-1.5-3-2.5-5.3-2.6
		l-0.2,0c-1,0-1.8,0.4-2.5,1.1c-0.7,0.7-1.1,1.6-1.1,2.6C291.5,375.8,291.5,375.9,291.5,376L291.5,376z M327.7,392.3v27.2
		c0,1-0.4,1.8-1,2.5l0,0c-0.6,0.6-1.5,1-2.5,1h-13.2H310h-10.3h-1.1h-13.1c-1,0-1.8-0.4-2.5-1h0c-0.6-0.6-1-1.5-1-2.5v-27.2h-3H278
		v-1.1v-7.9c0-1,0.4-1.8,1-2.5v0c0.6-0.6,1.5-1,2.5-1h9.3c-0.9-1-1.4-2.4-1.4-3.9c0-0.1,0-0.2,0-0.3c0.1-1.5,0.7-3,1.8-4
		c1-1.1,2.4-1.7,4-1.7c0,0,0.1,0,0.3,0c2.9,0.1,5.1,1.4,6.8,3.4c1.1,1.3,1.9,2.8,2.7,4.5c0.7-1.7,1.6-3.3,2.7-4.5
		c1.7-2,3.9-3.2,6.8-3.4c0.1,0,0.2,0,0.3,0c1.6,0,3,0.7,4,1.7c1,1,1.7,2.5,1.8,4c0,0.1,0,0.2,0,0.3c0,1.5-0.5,2.8-1.4,3.9h9.3
		c1,0,1.8,0.4,2.5,1c0.6,0.6,1,1.5,1,2.5v7.9v1.1h-1.1H327.7L327.7,392.3z M284.2,392.3v27.2c0,0.4,0.2,0.7,0.4,1l0,0
		c0.2,0.2,0.6,0.4,1,0.4h13.1v-28.6H284.2L284.2,392.3z M311.1,420.9h13.2c0.4,0,0.7-0.2,1-0.4h0c0.2-0.2,0.4-0.6,0.4-1v-27.2h-14.5
		V420.9L311.1,420.9z M309,392.3h-8.2v28.6h8.2V392.3L309,392.3z M328.3,382h-13.9h-3.4v8.2h15.6h1.1h2v-6.9c0-0.4-0.2-0.7-0.4-1
		C329,382.1,328.7,382,328.3,382L328.3,382z M295.4,382h-13.9c-0.4,0-0.7,0.2-1,0.4l0,0c-0.2,0.2-0.4,0.6-0.4,1v6.9h2h16.6V382
		H295.4L295.4,382z M300.8,390.2h8.2V382h-2.6h-1.5h-1.5h-2.6V390.2L300.8,390.2z M317.2,378.7c0.7-0.7,1.1-1.7,1.1-2.7
		c0-0.1,0-0.2,0-0.2c0-1-0.5-1.9-1.1-2.6c-0.6-0.7-1.5-1.1-2.5-1.1l-0.2,0c-2.3,0.1-4,1.1-5.3,2.6c-1.1,1.3-2,3.1-2.8,5.1h3.6h1.1
		h3.4C315.5,379.9,316.5,379.4,317.2,378.7L317.2,378.7z"/>
</g>
</svg>
