<?xml version="1.0" encoding="UTF-8" standalone="no"?>
<!-- Created with Inkscape (http://www.inkscape.org/) -->

<svg
   xmlns:dc="http://purl.org/dc/elements/1.1/"
   xmlns:cc="http://creativecommons.org/ns#"
   xmlns:rdf="http://www.w3.org/1999/02/22-rdf-syntax-ns#"
   xmlns:svg="http://www.w3.org/2000/svg"
   xmlns="http://www.w3.org/2000/svg"
   xmlns:sodipodi="http://sodipodi.sourceforge.net/DTD/sodipodi-0.dtd"
   xmlns:inkscape="http://www.inkscape.org/namespaces/inkscape"
   width="362.57144"
   height="356.52856"
   id="svg2"
   version="1.1"
   inkscape:version="0.48.4 r9939"
   sodipodi:docname="fen1.svg">
  <defs
     id="defs4" />
  <sodipodi:namedview
     id="base"
     pagecolor="#ffffff"
     bordercolor="#666666"
     borderopacity="1.0"
     inkscape:pageopacity="0.0"
     inkscape:pageshadow="2"
     inkscape:zoom="0.175"
     inkscape:cx="-141.00814"
     inkscape:cy="-99.299217"
     inkscape:document-units="px"
     inkscape:current-layer="layer1"
     showgrid="false"
     fit-margin-top="0"
     fit-margin-left="0"
     fit-margin-right="0"
     fit-margin-bottom="0"
     inkscape:window-width="551"
     inkscape:window-height="408"
     inkscape:window-x="794"
     inkscape:window-y="519"
     inkscape:window-maximized="0" />
  <metadata
     id="metadata7">
    <rdf:RDF>
      <cc:Work
         rdf:about="">
        <dc:format>image/svg+xml</dc:format>
        <dc:type
           rdf:resource="http://purl.org/dc/dcmitype/StillImage" />
        <dc:title></dc:title>
      </cc:Work>
    </rdf:RDF>
  </metadata>
  <g
     inkscape:label="Layer 1"
     inkscape:groupmode="layer"
     id="layer1"
     transform="translate(-59.514425,-34.26428)">
    <g
       id="g3226"
       transform="matrix(6.7142857,0,0,6.7142857,-1807.057,-2449.35)">
      <path
         id="path3228"
         d="m 291.5,376 c 0,1.1 0.4,2 1.1,2.7 l 0,0 c 0.7,0.7 1.7,1.1 2.7,1.1 h 3.3 1.1 3.7 c -0.8,-2 -1.6,-3.8 -2.8,-5.1 -1.3,-1.5 -3,-2.5 -5.3,-2.6 l -0.2,0 c -1,0 -1.8,0.4 -2.5,1.1 -0.7,0.7 -1.1,1.6 -1.1,2.6 0,0 0,0.1 0,0.2 l 0,0 z m 36.2,16.3 v 27.2 c 0,1 -0.4,1.8 -1,2.5 l 0,0 c -0.6,0.6 -1.5,1 -2.5,1 h -13.2 -1 -10.3 -1.1 -13.1 c -1,0 -1.8,-0.4 -2.5,-1 h 0 c -0.6,-0.6 -1,-1.5 -1,-2.5 v -27.2 h -3 -1 v -1.1 -7.9 c 0,-1 0.4,-1.8 1,-2.5 v 0 c 0.6,-0.6 1.5,-1 2.5,-1 h 9.3 c -0.9,-1 -1.4,-2.4 -1.4,-3.9 0,-0.1 0,-0.2 0,-0.3 0.1,-1.5 0.7,-3 1.8,-4 1,-1.1 2.4,-1.7 4,-1.7 0,0 0.1,0 0.3,0 2.9,0.1 5.1,1.4 6.8,3.4 1.1,1.3 1.9,2.8 2.7,4.5 0.7,-1.7 1.6,-3.3 2.7,-4.5 1.7,-2 3.9,-3.2 6.8,-3.4 0.1,0 0.2,0 0.3,0 1.6,0 3,0.7 4,1.7 1,1 1.7,2.5 1.8,4 0,0.1 0,0.2 0,0.3 0,1.5 -0.5,2.8 -1.4,3.9 h 9.3 c 1,0 1.8,0.4 2.5,1 0.6,0.6 1,1.5 1,2.5 v 7.9 1.1 h -1.1 -3.2 l 0,0 z m -43.5,0 v 27.2 c 0,0.4 0.2,0.7 0.4,1 l 0,0 c 0.2,0.2 0.6,0.4 1,0.4 h 13.1 v -28.6 h -14.5 l 0,0 z m 26.9,28.6 h 13.2 c 0.4,0 0.7,-0.2 1,-0.4 h 0 c 0.2,-0.2 0.4,-0.6 0.4,-1 v -27.2 h -14.5 v 28.6 l -0.1,0 z M 309,392.3 h -8.2 v 28.6 h 8.2 v -28.6 l 0,0 z M 328.3,382 H 314.4 311 v 8.2 h 15.6 1.1 2 v -6.9 c 0,-0.4 -0.2,-0.7 -0.4,-1 -0.3,-0.2 -0.6,-0.3 -1,-0.3 l 0,0 z m -32.9,0 h -13.9 c -0.4,0 -0.7,0.2 -1,0.4 l 0,0 c -0.2,0.2 -0.4,0.6 -0.4,1 v 6.9 h 2 16.6 V 382 h -3.3 l 0,0 z m 5.4,8.2 H 309 V 382 h -2.6 -1.5 -1.5 -2.6 v 8.2 l 0,0 z m 16.4,-11.5 c 0.7,-0.7 1.1,-1.7 1.1,-2.7 0,-0.1 0,-0.2 0,-0.2 0,-1 -0.5,-1.9 -1.1,-2.6 -0.6,-0.7 -1.5,-1.1 -2.5,-1.1 l -0.2,0 c -2.3,0.1 -4,1.1 -5.3,2.6 -1.1,1.3 -2,3.1 -2.8,5.1 h 3.6 1.1 3.4 c 1,0.1 2,-0.4 2.7,-1.1 l 0,0 z"
         inkscape:connector-curvature="0" />
    </g>
  </g>
  <style
     id="style3156"
     type="text/css">
	.st0{fill-rule:evenodd;clip-rule:evenodd;}
</style>
  <style
     id="style3191"
     type="text/css">
	.st0{fill-rule:evenodd;clip-rule:evenodd;}
</style>
</svg>
