<svg xmlns="http://www.w3.org/2000/svg" width="19.156" height="23.906" viewBox="0 0 19.156 23.906">
  <defs>
    <style>
      .cls-1 {
        fill: white;
      }
    </style>
  </defs>
  <path id="Ring_copy_2" data-name="Ring copy 2" class="cls-1" d="M20.991,17.805a0.537,0.537,0,0,0,.806,0l5.419-6.154a0.537,0.537,0,0,0,.092-0.565L26.154,8.352a0.54,0.54,0,0,0-.5-0.328H17.129a0.54,0.54,0,0,0-.5.328l-1.156,2.735a0.542,0.542,0,0,0,.094.565Zm-3.5-8.7H25.3l0.886,2.094-4.795,5.441L16.6,11.194Zm8.974,5.173a0.545,0.545,0,0,0-.742.17,0.538,0.538,0,0,0,.17.742,8.5,8.5,0,1,1-8.99,0,0.538,0.538,0,0,0,.17-0.742,0.544,0.544,0,0,0-.742-0.17A9.571,9.571,0,1,0,26.461,14.273Z" transform="translate(-11.813 -8.031)"/>
</svg>
