<?xml version="1.0" encoding="utf-8"?>
<!-- Generator: Adobe Illustrator 19.1.0, SVG Export Plug-In . SVG Version: 6.00 Build 0)  -->
<svg version="1.1" id="Layer_1" xmlns="http://www.w3.org/2000/svg" xmlns:xlink="http://www.w3.org/1999/xlink" x="0px" y="0px"
	 viewBox="0 0 612 792" style="enable-background:new 10 10 612 792;" xml:space="preserve">
<style type="text/css">
	.st0{fill-rule:evenodd;clip-rule:evenodd;}
</style>
<g>
	<path class="st0" d="M305.7,407.1c0,0.5,2.4,9.7,2.8,11c0.5,1.8,2.3,1,2.3,0c0-0.6-2.9-10.6-2.9-11.3c2.1,1.1,1.7,0.8,2,2.1
		c0.3,1.1,0.6,2.2,0.9,3.3l1.3,4.9c0.5,1.8,2.7,1.1,2.3-0.6l-1.3-4.7c-0.1-0.5-0.6-1.9-0.6-2.4c0.6,0.4,1.8,1.5,2,2.1
		c0.1,0.3,0.2,0.8,0.3,1.2c0.2,0.7,0.4,1.5,0.6,2.3c0.1,0.4,0.2,0.8,0.3,1c0.5,0.7,1.9,0.7,2-0.4c0.5,0.1,0.7,0.6,1.1,1l4.3,5.1
		c0.2,0.2,0.3,0.3,0.5,0.6c0.3,0.4,0.7,0.7,1,1.1c0.4,0.5,0.5,0.9,1.4,0.9c0.4,0,2.1-0.7,0.4-2.4c-0.4-0.4-0.6-0.7-0.9-1.1l-13-15.4
		c-0.5,0-1.2,0.2-1.7,0.4L305.7,407.1L305.7,407.1z M290.4,411.9c0,0.3,0,0.1,0.1,0.5l1-1.1c0.2-0.2,0.2-0.2,0.3-0.4
		C291.1,410.9,290.4,411.1,290.4,411.9L290.4,411.9z M301.3,418.8c0.6,0,0.7-0.2,1-0.5c-0.2-0.3-0.8-2.6-0.8-3.1h-0.2
		c-0.1,0.4-0.3,0.6-0.5,0.9c-0.1,0.2-0.1,0.3-0.2,0.4c-0.1,0.2-0.2,0.2-0.3,0.5C300,417.9,300.5,418.8,301.3,418.8L301.3,418.8z
		 M289.2,393.3v-0.2c-1.1-0.3-1.4-1.3-3-1.3c-0.9,0-1.2,1.9-0.2,2.2C286.4,394.1,288.5,393.4,289.2,393.3L289.2,393.3z M323.3,402.6
		c0.9,0.2,3.5,2.7,4,0.4c0.2-0.8-0.7-1.3-0.7-1.3c-0.5,0-1.8,0.4-2.5,0.6C323.5,402.4,323.5,402.3,323.3,402.6L323.3,402.6z
		 M310.8,381c0.2-0.2,1.6-2.5,1.6-2.9c0-1.1-1.5-1.6-2.2-0.6c-0.3,0.4-0.1,0.7,0,1.1c0.1,0.4,0.2,0.7,0.3,1.2
		C310.7,380.2,310.8,380.6,310.8,381L310.8,381z M294.6,380.4c0,0.4,3.1,4.1,3.6,4.4c-0.1-0.5-0.3-0.9-0.4-1.4
		c-0.2-0.7-0.7-3.2-1.1-3.6C296,378.8,294.6,379.4,294.6,380.4L294.6,380.4z M288.5,386.1c0,0.7,0.8,1.1,1.3,1.4l3.3,1.9
		c0.4,0.2,1.3,0.8,1.7,0.9l-0.5-2c-0.4-1.5-0.8-1.3-2.8-2.5c-0.3-0.2-0.5-0.3-0.8-0.5C289.3,384.4,288.5,385.2,288.5,386.1
		L288.5,386.1z M286.7,389.2c0,1.1,0.5,1.1,1.4,1.7c0.7,0.4,1.2,0.7,1.9,1.1c0.3,0.2,0.6,0.4,0.9,0.6c0.8,0.5,1.8-0.4,3.4-0.6
		c-0.3-0.4-2.6-1.7-3.2-2c-0.6-0.3-1.1-0.6-1.7-1c-0.5-0.3-1.2-0.8-1.8-0.8C287.3,388.1,286.7,388.6,286.7,389.2L286.7,389.2z
		 M318.2,403.8c0.1,0.4,0.7,0.6,1.5,1.1c0.6,0.4,4.6,2.7,5,2.7c1,0,1.3-0.3,1.3-1.3c0-0.8-1-1.1-2.1-1.8c-2.9-1.7-2.3-1.6-4.1-1.1
		C319.2,403.5,318.8,403.7,318.2,403.8L318.2,403.8z M312.2,386.1c0.4-0.3,2.5-4.1,2.9-4.8c0.4-0.7,0.9-1.3,0.9-2c0-0.9-0.7-1-1.4-1
		c-0.7,0-2.4,3.4-3,4.4c-0.4,0.6-0.1,1,0.3,2.3C312,385.2,312.1,385.7,312.2,386.1L312.2,386.1z M314.9,404.7l2.4,2.9
		c0.8,0.8,5.3,3.3,5.7,3.3c0.5,0,1.1-0.6,1.1-1c0-1.1-0.9-1.3-1.6-1.7c-0.9-0.5-6.2-3.7-6.5-3.7
		C315.4,404.4,315.4,404.6,314.9,404.7L314.9,404.7z M308.3,388.1c0.4,0,2-0.4,2.3-0.6l-2.8-10.6c-0.2-0.4-0.7-0.7-1.2-0.6
		c-1.8,0.4-0.4,3,0.2,5.6c0.2,1,0.5,2.1,0.8,3.1L308.3,388.1L308.3,388.1z M301.8,377.7c0,0.6,2.7,10.1,3,11.5
		c0.2-0.1,1.9-0.5,2.2-0.6c0-0.7-2.1-8.1-2.4-9.4c-0.4-1.4-0.4-2.5-1.6-2.5C302.4,376.6,301.8,377.2,301.8,377.7L301.8,377.7z
		 M301.1,390.1c0.4,0,0.7-0.2,1.1-0.3c0.4-0.1,0.8-0.2,1.2-0.3l-2.9-11c-0.5-1.4-2-1.2-2.3-0.1c-0.1,0.5,1,4.3,1.2,5
		C299.9,385.7,300.6,387.8,301.1,390.1L301.1,390.1z M284.6,423.1c0,0.7,0.5,1.3,1.3,1.3c0.6,0,0.9-0.5,1.2-0.9l6.1-7.3
		c0.3-0.3,0.4-0.3,0.5-0.7c1.1,0.1,1.2,0.6,2.3-1.3c0.4-0.6,0.7-1.2,1.1-1.8c0.4-0.6,0.7-1.2,1-1.8c0.5-0.8,1-1.1,1.3-1.7
		c-1,0.2-1.8,0.5-2.8,0.7c-1.4,0.4-0.8,0.1-2.1,1.6l-5.8,6.9C287.9,418.9,284.6,422.6,284.6,423.1L284.6,423.1z M296.6,416.3
		c0,0.8,0.6,1.3,1.1,1.3c0.8,0,1.2-1,1.5-1.5l3.1-5.4c0.1-0.2,0-0.1,0.2-0.3l1.3,4.8c0.7,2.2,0.6,4.2,2.1,4.2c0.5,0,1-0.4,1.1-0.9
		c0.2-0.7-2.7-9.8-2.7-11c-0.1,0-3,0.5-3.4,1.1l-1.3,2.3c-0.5,0.9-1,1.7-1.5,2.6C297.7,414.1,296.6,415.8,296.6,416.3L296.6,416.3z
		 M279,371.3c0,1.7,1.3,3.2,2.9,3.5c0.9,0.1,1-0.1,1.8-0.1c0.6,0.8,0.4,0.5,0.8,1l4.3,5.1c0.6,0.7,1.1,1.3,1.7,2.1l1.7,2
		c1,1.2,5.1,6.1,5.3,6.1c0.4,0,1.8-0.4,2.4-0.6l-1.9-2.3c-1-1.1-1.9-2.3-2.9-3.4l-3-3.5c-0.6-0.8-1.3-1.5-1.9-2.3l-1.9-2.3
		c-4.3-5-2.4-2.9-2.4-5.1c0-1.9-1.5-3.4-3.6-3.4C280.6,368,279,369.6,279,371.3L279,371.3z M319.4,381.5c-0.1-1-0.9-1.8-1.8-1.2
		c-0.4,0.3-1.1,1.6-1.4,2.1c-0.4,0.7-0.8,1.5-1.3,2.2c-0.4,0.7-0.8,1.5-1.3,2.2l8-2c1.1-0.4,0.7-1.7-0.1-2c0.5-0.7,1.1-1.3,1.6-2
		l1.7-2c0.7-0.8,2.8-3.2,3.3-4c2,0.2,2.5,0.3,3.7-0.9c0.9-0.9,1.3-2.2,0.7-3.7c-1.5-3.7-6.9-2.1-6.6,1.4c0,0.4,0.1,0.8,0.2,1
		c0.3,0.8,0.2,0.5-0.5,1.4L319.4,381.5L319.4,381.5z M284.7,397.3c0,0.7,0.5,1.3,1.1,1.3l9.9-2.6c1.7-0.5,3.3-0.8,4.9-1.3l5-1.3
		c3.4-0.8,6.6-1.8,9.9-2.6l8.7-2.3c1.1-0.6,0.7-2.6-1.1-2.1l-18.3,4.8c-5.1,1.4-10.5,2.7-15.5,4.1l-3.9,1.1
		C285.1,396.5,284.7,396.9,284.7,397.3L284.7,397.3z M287.6,408.4c0,0.5,0.6,1.1,1,1.1c0.7,0,4-1,5-1.2l32.4-8.6
		c0.8-0.2,1.9-0.3,1.9-1.4c0-1.5-1.5-1.2-2.4-0.9l-8.7,2.3c-6.4,1.6-13.4,3.7-19.8,5.2l-5,1.3C290.1,406.9,287.6,407,287.6,408.4
		L287.6,408.4z M286,404.9c0,0.5,0.5,1.2,1,1.2c0.5,0,4.4-1.1,5.2-1.3l15.4-4.1c5.9-1.5,11.9-3.2,17.8-4.7c1.6-0.4,2.1-0.4,2.1-1.7
		c0-1.2-1.3-1-2.1-0.8c-3.8,1.2-9.4,2.4-13.4,3.5l-25.4,6.8C286.3,404,286,404.4,286,404.9L286,404.9z M285.1,401.1
		c0,2,2,1.1,3.7,0.7l15.4-4.1c0.9-0.2,1.7-0.4,2.6-0.7c0.9-0.3,1.7-0.4,2.5-0.7c4.9-1.4,10.7-2.7,15.4-4.1c1-0.3,1.9-0.3,1.9-1.5
		c0-1.8-2.7-0.7-3.8-0.4c-5.9,1.6-12.1,3.1-17.9,4.8l-17.8,4.7C286.2,400,285.1,400.1,285.1,401.1L285.1,401.1z"/>
</g>
</svg>
