<?xml version="1.0" encoding="UTF-8" standalone="no"?>
<!-- Created with Inkscape (http://www.inkscape.org/) -->

<svg
   xmlns:dc="http://purl.org/dc/elements/1.1/"
   xmlns:cc="http://creativecommons.org/ns#"
   xmlns:rdf="http://www.w3.org/1999/02/22-rdf-syntax-ns#"
   xmlns:svg="http://www.w3.org/2000/svg"
   xmlns="http://www.w3.org/2000/svg"
   xmlns:sodipodi="http://sodipodi.sourceforge.net/DTD/sodipodi-0.dtd"
   xmlns:inkscape="http://www.inkscape.org/namespaces/inkscape"
   width="336.67749"
   height="352.50381"
   id="svg2"
   version="1.1"
   inkscape:version="0.48.4 r9939"
   sodipodi:docname="present1.svg">
  <defs
     id="defs4" />
  <sodipodi:namedview
     id="base"
     pagecolor="#ffffff"
     bordercolor="#666666"
     borderopacity="1.0"
     inkscape:pageopacity="0.0"
     inkscape:pageshadow="2"
     inkscape:zoom="0.175"
     inkscape:cx="-136.97264"
     inkscape:cy="-100.66656"
     inkscape:document-units="px"
     inkscape:current-layer="layer1"
     showgrid="false"
     fit-margin-top="0"
     fit-margin-left="0"
     fit-margin-right="0"
     fit-margin-bottom="0"
     inkscape:window-width="551"
     inkscape:window-height="408"
     inkscape:window-x="794"
     inkscape:window-y="519"
     inkscape:window-maximized="0" />
  <metadata
     id="metadata7">
    <rdf:RDF>
      <cc:Work
         rdf:about="">
        <dc:format>image/svg+xml</dc:format>
        <dc:type
           rdf:resource="http://purl.org/dc/dcmitype/StillImage" />
        <dc:title></dc:title>
      </cc:Work>
    </rdf:RDF>
  </metadata>
  <g
     inkscape:label="Layer 1"
     inkscape:groupmode="layer"
     id="layer1"
     transform="translate(-55.478919,-36.921681)">
    <g
       id="g3260"
       transform="matrix(6.2596567,0,0,6.2596567,-1690.9653,-2267.1728)">
      <path
         id="path3262"
         d="m 305.7,407.1 c 0,0.5 2.4,9.7 2.8,11 0.5,1.8 2.3,1 2.3,0 0,-0.6 -2.9,-10.6 -2.9,-11.3 2.1,1.1 1.7,0.8 2,2.1 0.3,1.1 0.6,2.2 0.9,3.3 l 1.3,4.9 c 0.5,1.8 2.7,1.1 2.3,-0.6 l -1.3,-4.7 c -0.1,-0.5 -0.6,-1.9 -0.6,-2.4 0.6,0.4 1.8,1.5 2,2.1 0.1,0.3 0.2,0.8 0.3,1.2 0.2,0.7 0.4,1.5 0.6,2.3 0.1,0.4 0.2,0.8 0.3,1 0.5,0.7 1.9,0.7 2,-0.4 0.5,0.1 0.7,0.6 1.1,1 l 4.3,5.1 c 0.2,0.2 0.3,0.3 0.5,0.6 0.3,0.4 0.7,0.7 1,1.1 0.4,0.5 0.5,0.9 1.4,0.9 0.4,0 2.1,-0.7 0.4,-2.4 -0.4,-0.4 -0.6,-0.7 -0.9,-1.1 l -13,-15.4 c -0.5,0 -1.2,0.2 -1.7,0.4 l -5.1,1.3 0,0 z m -15.3,4.8 c 0,0.3 0,0.1 0.1,0.5 l 1,-1.1 c 0.2,-0.2 0.2,-0.2 0.3,-0.4 -0.7,0 -1.4,0.2 -1.4,1 l 0,0 z m 10.9,6.9 c 0.6,0 0.7,-0.2 1,-0.5 -0.2,-0.3 -0.8,-2.6 -0.8,-3.1 h -0.2 c -0.1,0.4 -0.3,0.6 -0.5,0.9 -0.1,0.2 -0.1,0.3 -0.2,0.4 -0.1,0.2 -0.2,0.2 -0.3,0.5 -0.3,0.9 0.2,1.8 1,1.8 l 0,0 z m -12.1,-25.5 v -0.2 c -1.1,-0.3 -1.4,-1.3 -3,-1.3 -0.9,0 -1.2,1.9 -0.2,2.2 0.4,0.1 2.5,-0.6 3.2,-0.7 l 0,0 z m 34.1,9.3 c 0.9,0.2 3.5,2.7 4,0.4 0.2,-0.8 -0.7,-1.3 -0.7,-1.3 -0.5,0 -1.8,0.4 -2.5,0.6 -0.6,0.1 -0.6,0 -0.8,0.3 l 0,0 z M 310.8,381 c 0.2,-0.2 1.6,-2.5 1.6,-2.9 0,-1.1 -1.5,-1.6 -2.2,-0.6 -0.3,0.4 -0.1,0.7 0,1.1 0.1,0.4 0.2,0.7 0.3,1.2 0.2,0.4 0.3,0.8 0.3,1.2 l 0,0 z m -16.2,-0.6 c 0,0.4 3.1,4.1 3.6,4.4 -0.1,-0.5 -0.3,-0.9 -0.4,-1.4 -0.2,-0.7 -0.7,-3.2 -1.1,-3.6 -0.7,-1 -2.1,-0.4 -2.1,0.6 l 0,0 z m -6.1,5.7 c 0,0.7 0.8,1.1 1.3,1.4 l 3.3,1.9 c 0.4,0.2 1.3,0.8 1.7,0.9 l -0.5,-2 c -0.4,-1.5 -0.8,-1.3 -2.8,-2.5 -0.3,-0.2 -0.5,-0.3 -0.8,-0.5 -1.4,-0.9 -2.2,-0.1 -2.2,0.8 l 0,0 z m -1.8,3.1 c 0,1.1 0.5,1.1 1.4,1.7 0.7,0.4 1.2,0.7 1.9,1.1 0.3,0.2 0.6,0.4 0.9,0.6 0.8,0.5 1.8,-0.4 3.4,-0.6 -0.3,-0.4 -2.6,-1.7 -3.2,-2 -0.6,-0.3 -1.1,-0.6 -1.7,-1 -0.5,-0.3 -1.2,-0.8 -1.8,-0.8 -0.3,-0.1 -0.9,0.4 -0.9,1 l 0,0 z m 31.5,14.6 c 0.1,0.4 0.7,0.6 1.5,1.1 0.6,0.4 4.6,2.7 5,2.7 1,0 1.3,-0.3 1.3,-1.3 0,-0.8 -1,-1.1 -2.1,-1.8 -2.9,-1.7 -2.3,-1.6 -4.1,-1.1 -0.6,0.1 -1,0.3 -1.6,0.4 l 0,0 z m -6,-17.7 c 0.4,-0.3 2.5,-4.1 2.9,-4.8 0.4,-0.7 0.9,-1.3 0.9,-2 0,-0.9 -0.7,-1 -1.4,-1 -0.7,0 -2.4,3.4 -3,4.4 -0.4,0.6 -0.1,1 0.3,2.3 0.1,0.2 0.2,0.7 0.3,1.1 l 0,0 z m 2.7,18.6 2.4,2.9 c 0.8,0.8 5.3,3.3 5.7,3.3 0.5,0 1.1,-0.6 1.1,-1 0,-1.1 -0.9,-1.3 -1.6,-1.7 -0.9,-0.5 -6.2,-3.7 -6.5,-3.7 -0.6,-0.1 -0.6,0.1 -1.1,0.2 l 0,0 z m -6.6,-16.6 c 0.4,0 2,-0.4 2.3,-0.6 l -2.8,-10.6 c -0.2,-0.4 -0.7,-0.7 -1.2,-0.6 -1.8,0.4 -0.4,3 0.2,5.6 0.2,1 0.5,2.1 0.8,3.1 l 0.7,3.1 0,0 z m -6.5,-10.4 c 0,0.6 2.7,10.1 3,11.5 0.2,-0.1 1.9,-0.5 2.2,-0.6 0,-0.7 -2.1,-8.1 -2.4,-9.4 -0.4,-1.4 -0.4,-2.5 -1.6,-2.5 -0.6,-0.1 -1.2,0.5 -1.2,1 l 0,0 z m -0.7,12.4 c 0.4,0 0.7,-0.2 1.1,-0.3 0.4,-0.1 0.8,-0.2 1.2,-0.3 l -2.9,-11 c -0.5,-1.4 -2,-1.2 -2.3,-0.1 -0.1,0.5 1,4.3 1.2,5 0.5,2.3 1.2,4.4 1.7,6.7 l 0,0 z m -16.5,33 c 0,0.7 0.5,1.3 1.3,1.3 0.6,0 0.9,-0.5 1.2,-0.9 l 6.1,-7.3 c 0.3,-0.3 0.4,-0.3 0.5,-0.7 1.1,0.1 1.2,0.6 2.3,-1.3 0.4,-0.6 0.7,-1.2 1.1,-1.8 0.4,-0.6 0.7,-1.2 1,-1.8 0.5,-0.8 1,-1.1 1.3,-1.7 -1,0.2 -1.8,0.5 -2.8,0.7 -1.4,0.4 -0.8,0.1 -2.1,1.6 l -5.8,6.9 c -0.8,0.8 -4.1,4.5 -4.1,5 l 0,0 z m 12,-6.8 c 0,0.8 0.6,1.3 1.1,1.3 0.8,0 1.2,-1 1.5,-1.5 l 3.1,-5.4 c 0.1,-0.2 0,-0.1 0.2,-0.3 l 1.3,4.8 c 0.7,2.2 0.6,4.2 2.1,4.2 0.5,0 1,-0.4 1.1,-0.9 0.2,-0.7 -2.7,-9.8 -2.7,-11 -0.1,0 -3,0.5 -3.4,1.1 l -1.3,2.3 c -0.5,0.9 -1,1.7 -1.5,2.6 -0.4,0.6 -1.5,2.3 -1.5,2.8 l 0,0 z m -17.6,-45 c 0,1.7 1.3,3.2 2.9,3.5 0.9,0.1 1,-0.1 1.8,-0.1 0.6,0.8 0.4,0.5 0.8,1 l 4.3,5.1 c 0.6,0.7 1.1,1.3 1.7,2.1 l 1.7,2 c 1,1.2 5.1,6.1 5.3,6.1 0.4,0 1.8,-0.4 2.4,-0.6 l -1.9,-2.3 c -1,-1.1 -1.9,-2.3 -2.9,-3.4 l -3,-3.5 c -0.6,-0.8 -1.3,-1.5 -1.9,-2.3 l -1.9,-2.3 c -4.3,-5 -2.4,-2.9 -2.4,-5.1 0,-1.9 -1.5,-3.4 -3.6,-3.4 -1.7,-0.1 -3.3,1.5 -3.3,3.2 l 0,0 z m 40.4,10.2 c -0.1,-1 -0.9,-1.8 -1.8,-1.2 -0.4,0.3 -1.1,1.6 -1.4,2.1 -0.4,0.7 -0.8,1.5 -1.3,2.2 -0.4,0.7 -0.8,1.5 -1.3,2.2 l 8,-2 c 1.1,-0.4 0.7,-1.7 -0.1,-2 0.5,-0.7 1.1,-1.3 1.6,-2 l 1.7,-2 c 0.7,-0.8 2.8,-3.2 3.3,-4 2,0.2 2.5,0.3 3.7,-0.9 0.9,-0.9 1.3,-2.2 0.7,-3.7 -1.5,-3.7 -6.9,-2.1 -6.6,1.4 0,0.4 0.1,0.8 0.2,1 0.3,0.8 0.2,0.5 -0.5,1.4 l -6.2,7.5 0,0 z m -34.7,15.8 c 0,0.7 0.5,1.3 1.1,1.3 l 9.9,-2.6 c 1.7,-0.5 3.3,-0.8 4.9,-1.3 l 5,-1.3 c 3.4,-0.8 6.6,-1.8 9.9,-2.6 l 8.7,-2.3 c 1.1,-0.6 0.7,-2.6 -1.1,-2.1 l -18.3,4.8 c -5.1,1.4 -10.5,2.7 -15.5,4.1 l -3.9,1.1 c -0.3,0.1 -0.7,0.5 -0.7,0.9 l 0,0 z m 2.9,11.1 c 0,0.5 0.6,1.1 1,1.1 0.7,0 4,-1 5,-1.2 l 32.4,-8.6 c 0.8,-0.2 1.9,-0.3 1.9,-1.4 0,-1.5 -1.5,-1.2 -2.4,-0.9 l -8.7,2.3 c -6.4,1.6 -13.4,3.7 -19.8,5.2 l -5,1.3 c -1.9,0.7 -4.4,0.8 -4.4,2.2 l 0,0 z m -1.6,-3.5 c 0,0.5 0.5,1.2 1,1.2 0.5,0 4.4,-1.1 5.2,-1.3 l 15.4,-4.1 c 5.9,-1.5 11.9,-3.2 17.8,-4.7 1.6,-0.4 2.1,-0.4 2.1,-1.7 0,-1.2 -1.3,-1 -2.1,-0.8 -3.8,1.2 -9.4,2.4 -13.4,3.5 l -25.4,6.8 c -0.3,0.2 -0.6,0.6 -0.6,1.1 l 0,0 z m -0.9,-3.8 c 0,2 2,1.1 3.7,0.7 l 15.4,-4.1 c 0.9,-0.2 1.7,-0.4 2.6,-0.7 0.9,-0.3 1.7,-0.4 2.5,-0.7 4.9,-1.4 10.7,-2.7 15.4,-4.1 1,-0.3 1.9,-0.3 1.9,-1.5 0,-1.8 -2.7,-0.7 -3.8,-0.4 -5.9,1.6 -12.1,3.1 -17.9,4.8 l -17.8,4.7 c -0.9,0.2 -2,0.3 -2,1.3 l 0,0 z"
         class="st0"
         inkscape:connector-curvature="0"
         style="fill-rule:evenodd" />
    </g>
  </g>
  <style
     id="style3156"
     type="text/css">
	.st0{fill-rule:evenodd;clip-rule:evenodd;}
</style>
  <style
     id="style3191"
     type="text/css">
	.st0{fill-rule:evenodd;clip-rule:evenodd;}
</style>
  <style
     id="style3258"
     type="text/css">
	.st0{fill-rule:evenodd;clip-rule:evenodd;}
</style>
</svg>
