<svg xmlns="http://www.w3.org/2000/svg" width="22" height="25" viewBox="0 0 22 25">
  <defs>
    <style>
      .cls-1 {
        fill-rule: evenodd;
      }
    </style>
  </defs>
  <path id="Shopping_bag_4_copy_2" data-name="Shopping bag 4 copy 2" class="cls-1" d="M32.55,14.042H30V12.963a4.954,4.954,0,0,0-7.975-3.916,4.954,4.954,0,0,0-8,3.9v1.1H11.45a0.448,0.448,0,0,0-.45.448V32.552a0.448,0.448,0,0,0,.45.448h21.1A0.448,0.448,0,0,0,33,32.552V14.489A0.447,0.447,0,0,0,32.55,14.042ZM29.1,12.963v1.079H23.972v-1.1A4.9,4.9,0,0,0,22.69,9.659,4.066,4.066,0,0,1,29.1,12.963Zm-8.146,1.079V12.963a4.011,4.011,0,0,1,1.067-2.707,4.012,4.012,0,0,1,1.05,2.689v1.1H20.953Zm-6.028-1.1a4.064,4.064,0,0,1,6.431-3.29,4.9,4.9,0,0,0-1.3,3.307v1.079H14.925v-1.1Zm-0.45,17.23L16.414,32.1H12.538Zm0.45-.819V14.938h2.127V31.47Zm-0.9-14.418V29.356L11.9,31.47V14.938h2.122ZM32.1,32.1H17.954V14.938h2.1V17.5a0.451,0.451,0,0,0,.9,0V14.938H29.1V17.5a0.451,0.451,0,0,0,.9,0V14.938h2.1V32.1Z" transform="translate(-11 -8)"/>
</svg>
