<?xml version="1.0" encoding="utf-8"?>
<!-- Generator: Adobe Illustrator 19.1.0, SVG Export Plug-In . SVG Version: 6.00 Build 0)  -->
<svg version="1.1" id="Layer_1" xmlns="http://www.w3.org/2000/svg" xmlns:xlink="http://www.w3.org/1999/xlink" x="0px" y="0px"
	 viewBox="0 0 612 792" style="enable-background:new 0 0 612 792;" xml:space="preserve">
<style type="text/css">
	.st0{fill-rule:evenodd;clip-rule:evenodd;}
</style>
<g>
	<path class="st0" d="M296,413.5l-10.9-2.9c-2.2-0.6-3.6-2.9-3-5.1l6.6-24.5c0.3-1.3,1.2-2.3,2.4-2.8l7.2-3l1-1.3
		c1.2-1.6,3.4-2.3,5.3-1.5l1.4,0.6c0.3,0.1,0.5,0.2,0.8,0.3l11.6,4.8c1.3,0.6,2.3,1.6,2.7,3l7.5,27.8c0.6,2.4-0.8,4.9-3.2,5.5
		l-22.7,6.1c-2.4,0.6-4.9-0.8-5.5-3.2L296,413.5L296,413.5z M296.2,378l-4.3,1.8c-0.7,0.3-1.2,0.8-1.4,1.6l-6.6,24.5
		c-0.3,1.3,0.4,2.6,1.7,2.9l9.9,2.7l-1.5-5.5l-2.1,1.9c-0.2,0.1-0.4,0.2-0.6,0.1l-1.3-0.3c-0.2-0.1-0.4-0.2-0.4-0.5
		c-0.1-0.2,0-0.5,0.2-0.6l3.5-3.1l-1.1-4.1c-1.4-0.4-2.4-1.2-3-2.1c-0.6-0.9-1-2.3-0.5-4.3c0.3-1,0.7-1.7,1.1-2.2l-0.3-1.2
		c-0.4-1.4-0.1-2.7,0.8-3.9L296.2,378L296.2,378z M317.7,379.7l-13.8-5.7c-1.1-0.5-2.4-0.1-3.2,0.9l-9,11.8
		c-0.5,0.7-0.7,1.5-0.4,2.3l7.5,27.9c0.4,1.4,1.9,2.3,3.3,1.9l22.7-6.1c1.4-0.4,2.3-1.9,1.9-3.3l-7.5-27.8
		C319.1,380.7,318.5,380.1,317.7,379.7L317.7,379.7z M303.3,377.7c1.3-0.4,2.7,0.4,3.1,1.7c0.4,1.3-0.4,2.7-1.7,3.1
		c-1.3,0.4-2.7-0.4-3.1-1.7C301.1,379.5,301.9,378.1,303.3,377.7L303.3,377.7z M307.5,398.4c-0.6-2.2-1.8-3.4-2.9-3.9
		c-0.9-0.5-2.3-0.9-4.2-0.4c-1.9,0.5-3,1.6-3.5,2.5c-0.6,1-1.1,2.6-0.5,4.8c0.6,2.2,1.8,3.4,2.9,4c1.1,0.6,2.6,0.8,4.3,0.4
		c1.9-0.5,3-1.6,3.5-2.5C307.6,402.2,308.1,400.6,307.5,398.4L307.5,398.4z M301.2,397.4c0.7-0.2,1.1,0.1,1.4,0.3
		c0.6,0.5,0.9,1.4,1,1.8c0.2,0.6,0.2,1.5,0,2c-0.1,0.4-0.5,0.8-1,0.9c-0.5,0.1-1,0-1.3-0.3c-0.6-0.5-0.9-1.4-1-1.8
		c-0.2-0.6-0.3-1.4-0.1-1.9C300.3,398,300.5,397.6,301.2,397.4L301.2,397.4z M305.9,415l1.4-0.4c0.2-0.1,0.4-0.2,0.5-0.5l7.5-22.7
		c0.1-0.3,0-0.5-0.2-0.7c-0.2-0.2-0.4-0.3-0.7-0.2l-1.3,0.4c-0.2,0.1-0.4,0.2-0.5,0.5l-7.6,22.8c-0.1,0.3,0,0.5,0.2,0.7
		C305.4,415,305.6,415.1,305.9,415L305.9,415z M323.8,404.7c-0.6-2.2-1.8-3.4-2.9-3.9c-0.9-0.5-2.3-0.9-4.2-0.4
		c-1.9,0.5-3,1.6-3.5,2.5c-0.6,1-1.1,2.6-0.5,4.8c0.6,2.2,1.8,3.4,2.9,4c1.1,0.6,2.6,0.8,4.3,0.4c1.9-0.5,3-1.6,3.5-2.5
		C323.9,408.5,324.4,406.9,323.8,404.7L323.8,404.7z M317.5,403.7c0.7-0.2,1.1,0.1,1.4,0.3c0.6,0.5,0.9,1.4,1,1.8
		c0.2,0.6,0.2,1.5,0,2c-0.1,0.4-0.5,0.8-1,0.9c-0.5,0.1-1,0-1.3-0.3c-0.6-0.5-0.9-1.4-1-1.8c-0.2-0.6-0.3-1.4-0.1-1.9
		C316.6,404.4,316.9,403.9,317.5,403.7L317.5,403.7L317.5,403.7z"/>
</g>
</svg>
