<?xml version="1.0" encoding="utf-8"?>
<!-- Generator: Adobe Illustrator 19.1.0, SVG Export Plug-In . SVG Version: 6.00 Build 0)  -->
<svg version="1.1" id="Layer_1" xmlns="http://www.w3.org/2000/svg" xmlns:xlink="http://www.w3.org/1999/xlink" x="0px" y="0px"
	 viewBox="0 0 612 792" style="enable-background:new 0 0 612 792;" xml:space="preserve">
<style type="text/css">
	.st0{fill-rule:evenodd;clip-rule:evenodd;}
</style>
<g>
	<path class="st0" d="M329.8,387.5c0,3.4-1.9,3.9-0.4,5c1,0.7,2.1,2.4,2.2,3.8c0,0.8-0.4,1.7-0.7,2.2c-1.7,2.5-2.5,1.8-1.8,3.6
		c0.9,2.1,1.2,4.1-0.7,5.8c-0.3,0.3-0.8,0.6-1.2,0.8c-0.5,0.3-0.9,0.4-1.4,0.6c-0.5,0.2-0.7,0.6-0.7,1.1c0.1,1.5,0,3.4-1.2,4.5
		c-2.4,2.2-4.9,0.1-5.7,2.1c-2.6,6.5-6.6,2.8-7.8,2.8c-1.6,0-3.3,4.9-7.8,1.6c-0.5-0.4-1.4-1.6-2.1-1.6c-0.8,0-4.3,2.6-6.6-0.4
		c-0.8-1-0.9-1.5-1.3-2.5c-0.7-1.6-2.1-0.2-4.5-1.2c-0.4-0.2-1-0.5-1.2-0.8c-0.6-0.7-1-1.7-1.1-2.7c-0.2-1.6,0.5-2.3-1-3
		c-2.9-1.2-4.6-2.6-3.4-6.1c0.9-2.7,1.1-1.3-0.9-3.8c-1.6-2-1.5-3.7,0-5.6c0.5-0.6,1.6-1.2,1.6-2.1c0-1.2-3.7-5.2,2.8-7.8
		c2-0.8-0.2-3.3,2.1-5.7c1-1,3-1.3,4.4-1.2c0.6,0.1,1-0.2,1.2-0.7c0.6-1.2,1.4-4,3.9-4c1.4,0,1.7,0,3.1,0.6c1,0.4,1.2,0.6,2-0.3
		c0.9-1,2.1-2.1,3.8-2.1c0.8,0,1.6,0.3,2.2,0.7c2.1,1.4,1.8,2.6,3.6,1.7c1.2-0.6,2-0.6,3.3-0.6c2.7,0,3.5,4.1,4.2,4.5
		c0.6,0.3,0.9,0.1,1,0.1c2.4,0,4.3,0.6,5.1,2.8c1.2,3.5-1,3.3,1.9,4.5C328.1,384.5,329.8,385.7,329.8,387.5L329.8,387.5z
		 M310.5,392.1c0,1.1,1.6,1.6,2.1,0.5c0.2-0.4,0.1-2.7,2.4-2.7c2,0,2.1,2.4,2.2,2.6c0.5,1.2,2.1,0.8,2.1-0.3c0-2.8-2.1-4.5-4.3-4.5
		C312.6,387.6,310.5,389.6,310.5,392.1L310.5,392.1z M291.6,391.9c0,1.3,1.6,1.7,2.1,0.7c0.2-0.4,0.1-2.7,2.4-2.7
		c2,0,2.1,2.4,2.2,2.6c0.4,0.8,2.1,1.2,2.1-0.8c0-3.2-4.5-5.6-7.4-2.8C292.3,389.6,291.6,390.7,291.6,391.9L291.6,391.9z
		 M296.6,404.7c0.7,1.1,2.2,2.7,2.8,3.2c2.8,2.2,6.8,2.6,10,1.1c1.8-0.9,3-1.9,4.2-3.6c0.1-0.2,0.4-0.5,0.5-0.9
		c-2.8-0.2-5.7-0.2-8.5-0.2C302.7,404.4,299.7,404.5,296.6,404.7L296.6,404.7z M294.4,403.8c0,1.6,2.6,4.5,3.9,5.5
		c3.3,2.6,8.1,3.2,11.9,1.4c2.1-1,3.5-2.3,4.9-4.1c0.5-0.7,2.3-3.6,0.3-3.8c-4.5-0.4-14.6-0.3-19.2,0
		C296.2,402.8,294.4,402.4,294.4,403.8L294.4,403.8z M305.9,424.9H305c-1-0.1-1.9-0.4-2.8-0.9c-0.5-0.3-1.6-1.1-1.9-1.6
		c-0.5,0.1-0.9,0.4-1.5,0.5c-0.5,0.1-1.2,0.3-1.8,0.3c-3.8,0-5-2.2-6.3-4.8c-4.7,0-7.2-2.5-7.2-7.2c-0.6-0.3-1.2-0.5-1.8-0.9
		c-0.6-0.4-1-0.7-1.4-1.2c-0.8-0.8-1.6-2.2-1.6-3.8c0-2.3,0.5-2.4,0.8-3.7c-0.5-0.3-1.3-1.4-1.6-2c-0.8-1.5-0.9-2-0.9-3.5
		c0-1.7,1.5-4,2.5-4.6c-0.1-0.3-0.2-0.5-0.3-0.8c-0.8-2.3-0.8-4.9,1.1-6.7c1.5-1.5,1.6-1.3,3.2-2.1c0-4.1,1.8-6.5,5.3-7.1
		c0.6-0.1,0.8-0.1,1.5-0.1c1.1-0.1,0.3-0.7,2.4-3c0,0,0.1-0.1,0.1-0.1l0.3-0.3c1.6-1.4,3.9-1.6,5.9-1c0.4,0.1,1,0.4,1.4,0.4
		c0,0,0.9-0.8,1-0.9c2.5-1.9,5.1-2.2,7.7-0.3l1.5,1.2c1-0.2,1.7-0.7,2.9-0.7c1.9,0,2.6,0,4.3,1.3c2.4,1.9,1.3,3.3,3.2,3.5
		c1.3,0.1,2.2,0.3,3.4,0.9c0.6,0.4,0.7,0.5,1.2,1c0.8,0.8,1.2,1.6,1.6,2.9c0.7,2.5-0.5,2.1,1.4,3c5.7,2.9,2.9,8.5,2.9,9l1.6,2.2
		c1.4,2.8,1,4.7-0.8,7.1c-0.1,0.2-0.8,0.9-0.8,1c0,0.5,1.5,3.3,0.1,6.1c-0.4,0.7-0.5,0.9-1,1.4c-0.4,0.4-0.8,0.8-1.4,1.1
		c-0.5,0.3-1,0.7-1.7,0.8c0,0.4-0.1,1.3-0.2,1.7c-0.1,0.6-0.2,0.9-0.3,1.5c-0.3,0.9-0.8,1.6-1.4,2.2c-1.3,1.3-2.9,1.9-5.5,1.9
		c-0.2,0.3-0.2,0.6-0.4,0.9c-0.2,0.4-0.3,0.5-0.5,0.8c-0.5,0.7-0.7,0.9-1.2,1.5c-0.9,0.9-2.1,1.5-3.8,1.5c-1.9,0-2.7-0.6-3.6-0.8
		c-0.4,0.6-1.3,1.2-2,1.6C307.7,424.5,306.8,424.8,305.9,424.9L305.9,424.9z"/>
</g>
</svg>
