<?xml version="1.0" encoding="UTF-8" standalone="no"?>
<!-- Created with Inkscape (http://www.inkscape.org/) -->

<svg
   xmlns:dc="http://purl.org/dc/elements/1.1/"
   xmlns:cc="http://creativecommons.org/ns#"
   xmlns:rdf="http://www.w3.org/1999/02/22-rdf-syntax-ns#"
   xmlns:svg="http://www.w3.org/2000/svg"
   xmlns="http://www.w3.org/2000/svg"
   xmlns:sodipodi="http://sodipodi.sourceforge.net/DTD/sodipodi-0.dtd"
   xmlns:inkscape="http://www.inkscape.org/namespaces/inkscape"
   width="349.69699"
   height="348.11243"
   id="svg2"
   version="1.1"
   inkscape:version="0.48.4 r9939"
   sodipodi:docname="sale1.svg">
  <defs
     id="defs4" />
  <sodipodi:namedview
     id="base"
     pagecolor="#ffffff"
     bordercolor="#666666"
     borderopacity="1.0"
     inkscape:pageopacity="0.0"
     inkscape:pageshadow="2"
     inkscape:zoom="0.175"
     inkscape:cx="-130.82703"
     inkscape:cy="-88.277676"
     inkscape:document-units="px"
     inkscape:current-layer="layer1"
     showgrid="false"
     fit-margin-top="0"
     fit-margin-left="0"
     fit-margin-right="0"
     fit-margin-bottom="0"
     inkscape:window-width="551"
     inkscape:window-height="408"
     inkscape:window-x="794"
     inkscape:window-y="519"
     inkscape:window-maximized="0" />
  <metadata
     id="metadata7">
    <rdf:RDF>
      <cc:Work
         rdf:about="">
        <dc:format>image/svg+xml</dc:format>
        <dc:type
           rdf:resource="http://purl.org/dc/dcmitype/StillImage" />
        <dc:title></dc:title>
      </cc:Work>
    </rdf:RDF>
  </metadata>
  <g
     inkscape:label="Layer 1"
     inkscape:groupmode="layer"
     id="layer1"
     transform="translate(-49.333312,-53.701957)">
    <g
       id="g3330"
       transform="matrix(6.1412986,0,0,6.1412986,-1651.8064,-2207.6234)">
      <path
         id="path3332"
         d="m 329.8,387.5 c 0,3.4 -1.9,3.9 -0.4,5 1,0.7 2.1,2.4 2.2,3.8 0,0.8 -0.4,1.7 -0.7,2.2 -1.7,2.5 -2.5,1.8 -1.8,3.6 0.9,2.1 1.2,4.1 -0.7,5.8 -0.3,0.3 -0.8,0.6 -1.2,0.8 -0.5,0.3 -0.9,0.4 -1.4,0.6 -0.5,0.2 -0.7,0.6 -0.7,1.1 0.1,1.5 0,3.4 -1.2,4.5 -2.4,2.2 -4.9,0.1 -5.7,2.1 -2.6,6.5 -6.6,2.8 -7.8,2.8 -1.6,0 -3.3,4.9 -7.8,1.6 -0.5,-0.4 -1.4,-1.6 -2.1,-1.6 -0.8,0 -4.3,2.6 -6.6,-0.4 -0.8,-1 -0.9,-1.5 -1.3,-2.5 -0.7,-1.6 -2.1,-0.2 -4.5,-1.2 -0.4,-0.2 -1,-0.5 -1.2,-0.8 -0.6,-0.7 -1,-1.7 -1.1,-2.7 -0.2,-1.6 0.5,-2.3 -1,-3 -2.9,-1.2 -4.6,-2.6 -3.4,-6.1 0.9,-2.7 1.1,-1.3 -0.9,-3.8 -1.6,-2 -1.5,-3.7 0,-5.6 0.5,-0.6 1.6,-1.2 1.6,-2.1 0,-1.2 -3.7,-5.2 2.8,-7.8 2,-0.8 -0.2,-3.3 2.1,-5.7 1,-1 3,-1.3 4.4,-1.2 0.6,0.1 1,-0.2 1.2,-0.7 0.6,-1.2 1.4,-4 3.9,-4 1.4,0 1.7,0 3.1,0.6 1,0.4 1.2,0.6 2,-0.3 0.9,-1 2.1,-2.1 3.8,-2.1 0.8,0 1.6,0.3 2.2,0.7 2.1,1.4 1.8,2.6 3.6,1.7 1.2,-0.6 2,-0.6 3.3,-0.6 2.7,0 3.5,4.1 4.2,4.5 0.6,0.3 0.9,0.1 1,0.1 2.4,0 4.3,0.6 5.1,2.8 1.2,3.5 -1,3.3 1.9,4.5 1.4,0.4 3.1,1.6 3.1,3.4 l 0,0 z m -19.3,4.6 c 0,1.1 1.6,1.6 2.1,0.5 0.2,-0.4 0.1,-2.7 2.4,-2.7 2,0 2.1,2.4 2.2,2.6 0.5,1.2 2.1,0.8 2.1,-0.3 0,-2.8 -2.1,-4.5 -4.3,-4.5 -2.4,-0.1 -4.5,1.9 -4.5,4.4 l 0,0 z m -18.9,-0.2 c 0,1.3 1.6,1.7 2.1,0.7 0.2,-0.4 0.1,-2.7 2.4,-2.7 2,0 2.1,2.4 2.2,2.6 0.4,0.8 2.1,1.2 2.1,-0.8 0,-3.2 -4.5,-5.6 -7.4,-2.8 -0.7,0.7 -1.4,1.8 -1.4,3 l 0,0 z m 5,12.8 c 0.7,1.1 2.2,2.7 2.8,3.2 2.8,2.2 6.8,2.6 10,1.1 1.8,-0.9 3,-1.9 4.2,-3.6 0.1,-0.2 0.4,-0.5 0.5,-0.9 -2.8,-0.2 -5.7,-0.2 -8.5,-0.2 -2.9,0.1 -5.9,0.2 -9,0.4 l 0,0 z m -2.2,-0.9 c 0,1.6 2.6,4.5 3.9,5.5 3.3,2.6 8.1,3.2 11.9,1.4 2.1,-1 3.5,-2.3 4.9,-4.1 0.5,-0.7 2.3,-3.6 0.3,-3.8 -4.5,-0.4 -14.6,-0.3 -19.2,0 0,0 -1.8,-0.4 -1.8,1 l 0,0 z m 11.5,21.1 H 305 c -1,-0.1 -1.9,-0.4 -2.8,-0.9 -0.5,-0.3 -1.6,-1.1 -1.9,-1.6 -0.5,0.1 -0.9,0.4 -1.5,0.5 -0.5,0.1 -1.2,0.3 -1.8,0.3 -3.8,0 -5,-2.2 -6.3,-4.8 -4.7,0 -7.2,-2.5 -7.2,-7.2 -0.6,-0.3 -1.2,-0.5 -1.8,-0.9 -0.6,-0.4 -1,-0.7 -1.4,-1.2 -0.8,-0.8 -1.6,-2.2 -1.6,-3.8 0,-2.3 0.5,-2.4 0.8,-3.7 -0.5,-0.3 -1.3,-1.4 -1.6,-2 -0.8,-1.5 -0.9,-2 -0.9,-3.5 0,-1.7 1.5,-4 2.5,-4.6 -0.1,-0.3 -0.2,-0.5 -0.3,-0.8 -0.8,-2.3 -0.8,-4.9 1.1,-6.7 1.5,-1.5 1.6,-1.3 3.2,-2.1 0,-4.1 1.8,-6.5 5.3,-7.1 0.6,-0.1 0.8,-0.1 1.5,-0.1 1.1,-0.1 0.3,-0.7 2.4,-3 0,0 0.1,-0.1 0.1,-0.1 l 0.3,-0.3 c 1.6,-1.4 3.9,-1.6 5.9,-1 0.4,0.1 1,0.4 1.4,0.4 0,0 0.9,-0.8 1,-0.9 2.5,-1.9 5.1,-2.2 7.7,-0.3 l 1.5,1.2 c 1,-0.2 1.7,-0.7 2.9,-0.7 1.9,0 2.6,0 4.3,1.3 2.4,1.9 1.3,3.3 3.2,3.5 1.3,0.1 2.2,0.3 3.4,0.9 0.6,0.4 0.7,0.5 1.2,1 0.8,0.8 1.2,1.6 1.6,2.9 0.7,2.5 -0.5,2.1 1.4,3 5.7,2.9 2.9,8.5 2.9,9 l 1.6,2.2 c 1.4,2.8 1,4.7 -0.8,7.1 -0.1,0.2 -0.8,0.9 -0.8,1 0,0.5 1.5,3.3 0.1,6.1 -0.4,0.7 -0.5,0.9 -1,1.4 -0.4,0.4 -0.8,0.8 -1.4,1.1 -0.5,0.3 -1,0.7 -1.7,0.8 0,0.4 -0.1,1.3 -0.2,1.7 -0.1,0.6 -0.2,0.9 -0.3,1.5 -0.3,0.9 -0.8,1.6 -1.4,2.2 -1.3,1.3 -2.9,1.9 -5.5,1.9 -0.2,0.3 -0.2,0.6 -0.4,0.9 -0.2,0.4 -0.3,0.5 -0.5,0.8 -0.5,0.7 -0.7,0.9 -1.2,1.5 -0.9,0.9 -2.1,1.5 -3.8,1.5 -1.9,0 -2.7,-0.6 -3.6,-0.8 -0.4,0.6 -1.3,1.2 -2,1.6 -0.9,0.4 -1.8,0.7 -2.7,0.8 l 0,0 z"
         class="st0"
         inkscape:connector-curvature="0"
         style="fill-rule:evenodd" />
    </g>
  </g>
  <style
     id="style3156"
     type="text/css">
	.st0{fill-rule:evenodd;clip-rule:evenodd;}
</style>
  <style
     id="style3191"
     type="text/css">
	.st0{fill-rule:evenodd;clip-rule:evenodd;}
</style>
  <style
     id="style3258"
     type="text/css">
	.st0{fill-rule:evenodd;clip-rule:evenodd;}
</style>
  <style
     id="style3293"
     type="text/css">
	.st0{fill-rule:evenodd;clip-rule:evenodd;}
</style>
  <style
     id="style3328"
     type="text/css">
	.st0{fill-rule:evenodd;clip-rule:evenodd;}
</style>
</svg>
