<?xml version="1.0" encoding="UTF-8" standalone="no"?>
<!-- Created with Inkscape (http://www.inkscape.org/) -->

<svg
   xmlns:dc="http://purl.org/dc/elements/1.1/"
   xmlns:cc="http://creativecommons.org/ns#"
   xmlns:rdf="http://www.w3.org/1999/02/22-rdf-syntax-ns#"
   xmlns:svg="http://www.w3.org/2000/svg"
   xmlns="http://www.w3.org/2000/svg"
   xmlns:sodipodi="http://sodipodi.sourceforge.net/DTD/sodipodi-0.dtd"
   xmlns:inkscape="http://www.inkscape.org/namespaces/inkscape"
   width="445.73453"
   height="555.85718"
   id="svg2"
   version="1.1"
   inkscape:version="0.48.4 r9939"
   sodipodi:docname="child1.svg">
  <defs
     id="defs4" />
  <sodipodi:namedview
     id="base"
     pagecolor="#ffffff"
     bordercolor="#666666"
     borderopacity="1.0"
     inkscape:pageopacity="0.0"
     inkscape:pageshadow="2"
     inkscape:zoom="0.175"
     inkscape:cx="-118.35855"
     inkscape:cy="91.06521"
     inkscape:document-units="px"
     inkscape:current-layer="layer1"
     showgrid="false"
     fit-margin-top="0"
     fit-margin-left="0"
     fit-margin-right="0"
     fit-margin-bottom="0"
     inkscape:window-width="551"
     inkscape:window-height="408"
     inkscape:window-x="794"
     inkscape:window-y="519"
     inkscape:window-maximized="0" />
  <metadata
     id="metadata7">
    <rdf:RDF>
      <cc:Work
         rdf:about="">
        <dc:format>image/svg+xml</dc:format>
        <dc:type
           rdf:resource="http://purl.org/dc/dcmitype/StillImage" />
        <dc:title></dc:title>
      </cc:Work>
    </rdf:RDF>
  </metadata>
  <g
     inkscape:label="Layer 1"
     inkscape:groupmode="layer"
     id="layer1"
     transform="translate(-36.864827,-25.300087)">
    <g
       id="g2986"
       transform="matrix(147.72159,0,0,147.72159,-42318.718,-60655.462)">
      <g
         id="g3113"
         transform="matrix(0.07099755,0,0,0.07099755,266.56244,384.50879)">
        <path
           id="path3115"
           d="m 314.9,380.8 c -0.2,-2.3 -1.3,-4.3 -2.8,-5.8 -1.8,-1.8 -4.2,-2.8 -6.9,-2.8 -2.7,0 -5.1,1.1 -6.9,2.8 -1.5,1.5 -2.5,3.5 -2.8,5.8 h 19.4 l 0,0 z m -21.5,0 c 0.3,-2.8 1.5,-5.4 3.4,-7.3 2.1,-2.1 5.1,-3.5 8.4,-3.5 3.3,0 6.2,1.3 8.4,3.5 1.9,1.9 3.2,4.5 3.4,7.3 h 5.2 1 l 0.1,1 3.1,40.1 0.1,1.1 h -1.1 -40.1 -1.3 l 0.1,-1.1 3.1,-40.1 0.1,-1 h 1 5.1 l 0,0 z m 27.8,2.1 h -32 l -2.9,38 h 37.8 l -2.9,-38 0,0 z m -22.1,10.8 h 12.1 1 l 0.1,1 1.1,14.4 0.1,1.1 h -1.1 -14.4 -1.1 l 0.1,-1.1 1.1,-14.4 0.1,-1 h 0.9 l 0,0 z m 11.2,2.1 h -10.2 l -0.9,12.2 h 12.1 l -1,-12.2 0,0 z"
           inkscape:connector-curvature="0" />
      </g>
    </g>
  </g>
</svg>
