<?xml version="1.0" ?><svg height="24px" version="1.1" viewBox="0 0 24 24" width="24px" xmlns="http://www.w3.org/2000/svg" xmlns:sketch="http://www.bohemiancoding.com/sketch/ns" xmlns:xlink="http://www.w3.org/1999/xlink"><title/><desc/><defs/><g fill="none" fill-rule="evenodd" id="miu" stroke="none" stroke-width="1"><g id="Artboard-1" transform="translate(-431.000000, -623.000000)"><g id="slice" transform="translate(215.000000, 119.000000)"/><path d="M443,640 L443,626.5 L443,626.5 L432,626.5 L432,640 L443,640 Z M443,641 L443,643 C443,643.482174 442.850208,643.706862 442.552786,643.855573 C442.341592,643.96117 442.108613,644 442,644 L433,644 C432.891387,644 432.658408,643.96117 432.447214,643.855573 C432.149792,643.706862 432,643.482174 432,643 L432,641 L443,641 Z M443,625.5 L443,625 C443,624.517826 442.850208,624.293138 442.552786,624.144427 C442.341592,624.03883 442.108613,624 442,624 L433,624 C432.891387,624 432.658408,624.03883 432.447214,624.144427 C432.149792,624.293138 432,624.517826 432,625 L432,625.5 L443,625.5 L443,625.5 Z M445,635 L450,635 L450,646 L440,646 L433.25,646 C433.5,646.5 434,647 435,647 L453,647 C455,647 455,645 455,645 L455,636 C455,636 455,634 453,634 L445,634 L445,635 L445,635 Z M451,635 L453,635 C453.482174,635 453.706862,635.149792 453.855573,635.447214 C453.96117,635.658408 454,635.891387 454,636 L454,645 C454,645.108613 453.96117,645.341592 453.855573,645.552786 C453.706862,645.850208 453.482174,646 453,646 L451,646 L451,635 L451,635 Z M453.5,640.5 C453.5,639.947715 453.052285,639.5 452.5,639.5 C451.947715,639.5 451.5,639.947715 451.5,640.5 C451.5,641.052285 451.947715,641.5 452.5,641.5 C453.052285,641.5 453.5,641.052285 453.5,640.5 Z M431,625 L431,643 C431,645 433,645 433,645 L442,645 C442,645 444,645 444,643 L444,625 C444,623 442,623 442,623 L433,623 C433,623 431,623 431,625 Z M437.5,643.5 C438.052285,643.5 438.5,643.052285 438.5,642.5 C438.5,641.947715 438.052285,641.5 437.5,641.5 C436.947715,641.5 436.5,641.947715 436.5,642.5 C436.5,643.052285 436.947715,643.5 437.5,643.5 Z M435.221295,624.5 C435.099077,624.5 435,624.596554 435,624.721103 L435,624.779668 C435,624.901779 435.099877,625.00077 435.221295,625.00077 L439.778705,625.00077 C439.900923,625.00077 440,624.904217 440,624.779668 L440,624.721103 C440,624.598991 439.900123,624.5 439.778705,624.5 L435.221295,624.5 Z" fill="#000000" id="device-smart-phones-iphones-vertical-outline-stroke"/></g></g></svg>