<?xml version="1.0" encoding="UTF-8" standalone="no"?>
<!-- Created with Inkscape (http://www.inkscape.org/) -->

<svg
   xmlns:dc="http://purl.org/dc/elements/1.1/"
   xmlns:cc="http://creativecommons.org/ns#"
   xmlns:rdf="http://www.w3.org/1999/02/22-rdf-syntax-ns#"
   xmlns:svg="http://www.w3.org/2000/svg"
   xmlns="http://www.w3.org/2000/svg"
   xmlns:sodipodi="http://sodipodi.sourceforge.net/DTD/sodipodi-0.dtd"
   xmlns:inkscape="http://www.inkscape.org/namespaces/inkscape"
   width="426.66888"
   height="446.48386"
   id="svg2"
   version="1.1"
   inkscape:version="0.48.4 r9939"
   sodipodi:docname="akses1.svg">
  <defs
     id="defs4" />
  <sodipodi:namedview
     id="base"
     pagecolor="#ffffff"
     bordercolor="#666666"
     borderopacity="1.0"
     inkscape:pageopacity="0.0"
     inkscape:pageshadow="2"
     inkscape:zoom="0.175"
     inkscape:cx="-143.31647"
     inkscape:cy="6.9919073"
     inkscape:document-units="px"
     inkscape:current-layer="layer1"
     showgrid="false"
     fit-margin-top="0"
     fit-margin-left="0"
     fit-margin-right="0"
     fit-margin-bottom="0"
     inkscape:window-width="551"
     inkscape:window-height="408"
     inkscape:window-x="794"
     inkscape:window-y="519"
     inkscape:window-maximized="0" />
  <metadata
     id="metadata7">
    <rdf:RDF>
      <cc:Work
         rdf:about="">
        <dc:format>image/svg+xml</dc:format>
        <dc:type
           rdf:resource="http://purl.org/dc/dcmitype/StillImage" />
        <dc:title></dc:title>
      </cc:Work>
    </rdf:RDF>
  </metadata>
  <g
     inkscape:label="Layer 1"
     inkscape:groupmode="layer"
     id="layer1"
     transform="translate(-61.822754,-50.600105)">
    <g
       id="g3158"
       transform="matrix(8.0592754,0,0,8.0592754,-2187.0889,-2925.6903)">
      <path
         id="path3160"
         d="m 296.3,411.4 h 18.5 l -1.8,8.3 c -0.1,0.6 -0.2,0.9 -0.3,1.4 -0.1,0.5 -0.3,1 -0.3,1.5 h -13.6 l -2.5,-11.2 0,0 z m -9.9,-16.3 c 0,-1.7 1.7,-1.1 1.7,-0.4 0,0.4 0,0.7 -0.2,1 -0.6,0.5 -1.5,-0.1 -1.5,-0.6 l 0,0 z m -2,-0.4 c 0,3.1 3.1,3.9 4.8,2.4 0.9,-0.8 0.9,-1.4 0.9,-2.5 0,-1.2 -1.3,-2.5 -2.9,-2.5 -1.4,-0.1 -2.8,1.2 -2.8,2.6 l 0,0 z m 39.4,1.2 c -1.1,0 -1.3,-1.9 0,-1.9 1.3,0 1.2,1.9 0,1.9 l 0,0 z m -2.8,-1 c 0,2.6 3,3.9 4.8,2.1 0.5,-0.5 0.9,-1.2 0.9,-2 0.1,-2.6 -3.1,-3.9 -4.9,-2.1 -0.4,0.4 -0.8,1.1 -0.8,2 l 0,0 z M 302.8,382 c 0,-1.8 1.2,-2.8 3.1,-2.8 1.2,0 2.5,1.3 2.5,2.5 v 0.5 c 0,1.2 -1.2,2.5 -2.8,2.5 -1.6,0 -2.8,-1.2 -2.8,-2.7 l 0,0 z m -2,-0.2 c 0,5.5 7,6.5 9,2.3 1.6,-3.4 -1.1,-6.8 -3.9,-6.8 h -0.5 c -2.4,-0.1 -4.6,2.1 -4.6,4.5 l 0,0 z m -6.6,25.7 h 22.6 v 1.9 h -22.6 v -1.9 l 0,0 z m -3.1,-14.9 c 0,1 1.5,1 1.9,1.2 1.4,0.7 1.6,2.9 0.2,3.8 -1.5,0.9 -2.4,-0.4 -3,0.9 -0.1,0.3 0,0.7 0,1.4 0,2.2 -3.3,2.7 -4.1,0.7 -0.4,-0.8 0,-1.7 -1.2,-1.7 -0.3,0 -2,1.1 -3.3,-0.2 -0.9,-0.9 -0.7,-2.4 0.2,-3.2 0.3,-0.3 0.4,-0.3 0.8,-0.4 0.4,-0.2 0.5,-0.4 0.5,-0.9 0,-0.8 -2.2,-1.9 -0.7,-3.8 0.8,-1 2.5,-1 3.3,-0.1 0.2,0.2 0.6,0.8 1.3,0.4 0.8,-0.4 0.4,-1.9 2.7,-1.9 1.3,0 2,1.1 2,2.3 -0.1,0.7 -0.6,1 -0.6,1.5 l 0,0 z m 28.4,-1.7 c 0,-1.5 0.9,-2.3 2.4,-2.3 1.8,0 1.8,2 2.5,2 1.8,0 0.6,-1.1 2.9,-1.1 0.6,0 1,0.2 1.3,0.6 0.8,0.9 0.9,2.2 0.2,3 l -0.2,0.2 c -1.4,1.3 0.6,2 0.8,2.1 1,0.8 1.1,2.3 0.3,3.2 -1.3,1.4 -2.7,0.2 -3.5,0.2 -1.6,0 0,2.9 -3.3,2.9 -1,0 -2,-1 -2,-2 0,0 0.4,-2 -0.5,-2 -1,0 -1.6,0.3 -2.4,-0.3 -1.5,-1 -1.2,-3 0.1,-3.8 0.9,-0.5 1.9,0.1 1.9,-1.4 0,-0.1 -0.5,-0.6 -0.5,-1.3 l 0,0 z m -17.7,-16.3 c 0,-1 0.5,-1.9 1.1,-2.4 1,-1 1.5,-1.2 3,-1.2 1.9,0 3.5,1.8 3.5,3.7 0,0 -0.3,1.5 0.9,1.5 0.7,0 0.3,-0.4 2.2,-0.4 2.1,0 3.9,2.1 3.5,4.2 -0.6,3.8 -3.8,2.5 -3.8,4.2 0,0.6 0.4,0.7 0.7,1.2 0.8,1.5 0.6,3.6 -0.7,4.6 -1.8,1.5 -4.3,1.4 -5.7,-0.6 -0.3,-0.4 -0.7,-1.2 -1.6,-0.6 -0.2,0.1 -0.2,0.2 -0.4,0.4 -2.3,3.5 -6.9,1.4 -6.9,-1.7 0,-2.8 1.2,-2.3 1.2,-3.5 0,-1.5 -3.2,-0.4 -3.7,-4.1 -0.4,-2.8 2.5,-4.8 4.8,-4 0.2,0.1 1.1,0.7 1.7,-0.2 0.4,-0.5 0.2,-0.6 0.2,-1.1 l 0,0 z m -1.9,-0.7 c -1.1,-0.5 -3.3,0.2 -4.2,0.8 -2.3,1.6 -3.1,4.8 -1.9,7.3 0.3,0.7 0.5,1 1.1,1.6 0.3,0.3 1.1,0.9 1.6,1.1 -2.6,4.8 2.4,10.5 8.1,7.5 0.3,3.5 -0.1,7.2 0.1,10.7 0,0.4 0,0 -0.1,0.3 l -3.8,-3.6 c -2.6,-1.9 -3.7,-1.7 -5,-2.3 0.6,-1.3 0.2,-3 -0.5,-4.1 -0.5,-0.7 -1.1,-1 -1.8,-1.4 0.6,-2.6 -1.4,-5.1 -3.5,-5.1 -0.8,0 -1.8,0.1 -2.5,0.4 -0.3,0.2 -1,0.6 -1.1,1 -0.6,-0.1 -1.1,-0.5 -2.2,-0.6 -1.5,-0.1 -2.9,0.7 -3.7,1.9 -0.9,1.4 -0.7,3.1 0,4.5 -0.3,0.5 -0.7,0.7 -1,1.3 -1.2,2.3 0.1,5.2 2.5,5.9 0.5,0.1 1.7,0.2 2.2,0 0.3,1.2 2,2.6 3.5,2.6 1.4,0 2.4,-0.2 3.4,-1.2 0.6,-0.6 1.1,-1.5 1.1,-2.6 0.4,-0.1 0.9,-0.1 1.2,-0.3 0.4,-0.2 0.8,-0.5 1.2,-0.5 2,0 5,1.8 6.4,3.2 0.4,0.4 0.6,0.4 1,1 0.4,0.6 1.5,1.5 1.6,2.3 h -9.2 c -2.8,0 -2.2,0.2 -2.2,4.8 0,1 1,1 2.1,1 0,0.6 0.2,1.1 0.4,1.7 l 2.2,10.3 c 0.1,0.3 0.1,0.5 0.2,0.8 0.1,0.2 0.4,0.5 0.6,0.5 h 15.6 c 0.9,0 1.1,-2.4 1.2,-2.9 l 1.8,-8.6 c 0.1,-0.6 0.3,-1.2 0.4,-1.7 2.7,0 2.1,-0.3 2.1,-4.8 0,-1.1 -1,-1 -2.1,-1 h -9.3 c 0.2,-0.8 1.4,-2.1 1.9,-2.7 0.3,-0.3 0.3,-0.3 0.6,-0.6 0.3,-0.2 0.3,-0.4 0.6,-0.6 1.4,-1.1 2.8,-2.1 4.7,-2.5 0.2,-0.1 0.9,-0.2 1,-0.2 0.4,0 0.7,0.5 2.6,1 0,1.9 1.8,3.8 3.8,3.8 h 0.7 c 1.6,0 3.2,-1.3 3.5,-2.6 1.1,0.5 2.8,-0.1 3.6,-0.7 2.1,-1.6 2.1,-5.1 0.1,-6.5 2.4,-3.5 -1.6,-7.9 -5.7,-5.8 -0.4,-0.3 -0.7,-0.6 -1.2,-0.9 -2.6,-1.5 -6.3,0.3 -6.3,3.5 0,0.6 0.1,0.6 0.1,1.2 -1.6,0.1 -3.3,3.2 -2.3,5.2 -1.5,0 -3.9,1.5 -5.1,2.4 -1.1,0.8 -2.1,1.6 -2.9,2.7 -0.3,0.3 -0.5,0.7 -0.9,1 0,-1.2 0.2,-10.7 0,-11 1.3,0.3 1.4,0.9 3.3,0.9 2.3,0 4,-1.3 5,-3.1 1.4,-2.5 0.1,-4.6 0,-5.3 1,-0.7 2,-1.4 2.5,-2.6 1.2,-2.5 0.4,-5.7 -1.9,-7.3 -1,-0.7 -3.1,-1.4 -4.2,-0.8 0,-2.4 -2.7,-4.9 -5.1,-4.9 -1.9,0 -3.1,0.3 -4.5,1.6 -0.4,0.3 -1.4,1.8 -1.4,3 l 0,0 z"
         class="st0"
         inkscape:connector-curvature="0"
         style="fill-rule:evenodd" />
    </g>
  </g>
  <style
     id="style3156"
     type="text/css">
	.st0{fill-rule:evenodd;clip-rule:evenodd;}
</style>
</svg>
