<?xml version="1.0" encoding="UTF-8" standalone="no"?>
<!-- Created with Inkscape (http://www.inkscape.org/) -->

<svg
   xmlns:dc="http://purl.org/dc/elements/1.1/"
   xmlns:cc="http://creativecommons.org/ns#"
   xmlns:rdf="http://www.w3.org/1999/02/22-rdf-syntax-ns#"
   xmlns:svg="http://www.w3.org/2000/svg"
   xmlns="http://www.w3.org/2000/svg"
   xmlns:sodipodi="http://sodipodi.sourceforge.net/DTD/sodipodi-0.dtd"
   xmlns:inkscape="http://www.inkscape.org/namespaces/inkscape"
   width="439.91"
   height="350.31787"
   id="svg2"
   version="1.1"
   inkscape:version="0.48.4 r9939"
   sodipodi:docname="dom1.svg">
  <defs
     id="defs4" />
  <sodipodi:namedview
     id="base"
     pagecolor="#ffffff"
     bordercolor="#666666"
     borderopacity="1.0"
     inkscape:pageopacity="0.0"
     inkscape:pageshadow="2"
     inkscape:zoom="0.175"
     inkscape:cx="-139.43681"
     inkscape:cy="-92.134938"
     inkscape:document-units="px"
     inkscape:current-layer="layer1"
     showgrid="false"
     fit-margin-top="0"
     fit-margin-left="0"
     fit-margin-right="0"
     fit-margin-bottom="0"
     inkscape:window-width="551"
     inkscape:window-height="408"
     inkscape:window-x="794"
     inkscape:window-y="519"
     inkscape:window-maximized="0" />
  <metadata
     id="metadata7">
    <rdf:RDF>
      <cc:Work
         rdf:about="">
        <dc:format>image/svg+xml</dc:format>
        <dc:type
           rdf:resource="http://purl.org/dc/dcmitype/StillImage" />
        <dc:title></dc:title>
      </cc:Work>
    </rdf:RDF>
  </metadata>
  <g
     inkscape:label="Layer 1"
     inkscape:groupmode="layer"
     id="layer1"
     transform="translate(-57.943085,-47.639259)">
    <g
       id="g3193"
       transform="matrix(6.588018,0,0,6.588018,-1733.9249,-2389.4333)">
      <path
         id="path3195"
         d="m 274.2,386.1 c 0,-2.7 0,-4.1 1.3,-6.6 2.3,-4.5 6.5,-7.4 12.2,-7.4 1.4,0 2.8,0.3 3.9,0.6 6.1,1.5 16.7,3.1 23.4,4.2 l 4,0.6 v 14.2 c 0,0.5 -0.6,0.5 -1.1,0.7 -5.7,1.8 -16.8,5.6 -22,5.6 l -2.5,19.7 c -0.1,0.8 -0.3,2 -0.4,2.8 -1,0 -1.8,0.1 -2.7,0.2 l -4,0.4 c -1.8,0 -3.9,0.3 -5.3,0 l 2.7,-21 c 0.2,-1 0.3,-1 -0.5,-2.1 -0.5,-0.7 -0.7,-0.5 -1.8,-1.1 -1,-0.5 -2.7,-1.7 -3.5,-2.4 l -1.3,-1.6 c -1.2,-1.9 -2.4,-4.6 -2.4,-6.8 l 0,0 z m 48.6,-0.7 c 0.6,0.9 1.4,0.9 2.3,0.3 0.7,-0.4 0.8,-1.8 1.9,-1.8 2.5,0 6.1,4.5 9.7,1.4 0.4,-0.3 0.7,-0.6 0.9,-1 l 0.5,-0.9 c 0.1,-1 -1.3,-1.1 -2.2,-0.6 -1.2,0.7 -0.4,2.6 -5.1,0.2 -2,-1.1 -3.7,-2.2 -6.3,-0.2 -0.6,0.5 -1.5,1.7 -1.7,2.6 l 0,0 z m 0.7,3.9 c 0,0.8 1.5,1 2.3,0.3 0.7,-0.6 0.7,-2.4 3.2,-1.4 2.4,1 5.4,3.5 8.4,1 0.5,-0.4 2.8,-2.7 0,-2.7 -2.2,0 -0.6,3.4 -6.1,0.4 -1.4,-0.8 -1.6,-1.1 -3.5,-1.1 -2.3,0 -4.3,2.5 -4.3,3.5 l 0,0 z m -0.9,-8.5 c 0.5,0.7 0.4,0.6 1.5,0.6 1.7,0 1.2,-2 2.8,-2 2.5,0 6.4,4.8 10.1,1.1 0.4,-0.4 1.5,-1.6 0.9,-2.2 -0.6,-0.6 -1.9,-0.4 -2.5,0.4 -1.7,2.3 -3.6,-0.1 -6.2,-1.1 -1.9,-0.7 -3.2,-0.6 -4.8,0.7 -0.7,0.5 -1.6,1.7 -1.8,2.5 l 0,0 z m -35.4,10 c 1.8,0 3,-0.8 4,-1.7 0.5,-0.5 0.9,-0.9 1.2,-1.6 2.6,-6 -4.9,-10.6 -9.1,-6.4 -1.6,1.6 -2.1,4.1 -1.2,6.2 0.7,1.8 2.6,3.5 5.1,3.5 l 0,0 z m -5.4,8.4 -2.6,19.7 c -0.4,3.1 -1.3,4.2 3.8,4.2 2.7,0 5.6,-0.2 7.9,-0.5 5.3,-0.7 3.7,0.2 5.5,-11.6 l 1.3,-10.3 c 0.1,-0.8 -0.1,-0.6 0.4,-0.8 l 3.6,-0.7 c 4.5,-1 9.1,-2.3 13.5,-3.8 l 4.8,-1.6 c 0.4,-0.1 1.3,-0.3 1.3,-0.9 v -16.8 c 0,-0.6 -0.4,-0.4 -1,-0.5 l -8.9,-1.5 c -3.4,-0.7 -6.7,-1.1 -10.1,-1.7 -1.7,-0.3 -3.2,-0.6 -5,-0.9 -2.2,-0.4 -5.6,-1.3 -7.4,-1.5 -1.3,-0.1 -1.4,-0.1 -2.6,0 -1.8,0 -3.5,0.6 -4.8,1.1 -4,1.6 -7.2,5.1 -8.6,9.1 -0.4,1.2 -1,3.8 -0.9,5.1 0.6,5.8 2.7,9.8 7.7,12.8 0.8,0.5 1.4,0.7 2.1,1.1 l 0,0 z"
         class="st0"
         inkscape:connector-curvature="0"
         style="fill-rule:evenodd" />
    </g>
  </g>
  <style
     id="style3156"
     type="text/css">
	.st0{fill-rule:evenodd;clip-rule:evenodd;}
</style>
  <style
     id="style3191"
     type="text/css">
	.st0{fill-rule:evenodd;clip-rule:evenodd;}
</style>
</svg>
