<?xml version="1.0" encoding="UTF-8" standalone="no"?>
<!-- Created with Inkscape (http://www.inkscape.org/) -->

<svg
   xmlns:dc="http://purl.org/dc/elements/1.1/"
   xmlns:cc="http://creativecommons.org/ns#"
   xmlns:rdf="http://www.w3.org/1999/02/22-rdf-syntax-ns#"
   xmlns:svg="http://www.w3.org/2000/svg"
   xmlns="http://www.w3.org/2000/svg"
   xmlns:sodipodi="http://sodipodi.sourceforge.net/DTD/sodipodi-0.dtd"
   xmlns:inkscape="http://www.inkscape.org/namespaces/inkscape"
   width="333.45081"
   height="346.23236"
   id="svg2"
   version="1.1"
   inkscape:version="0.48.4 r9939"
   sodipodi:docname="sale1.svg">
  <defs
     id="defs4" />
  <sodipodi:namedview
     id="base"
     pagecolor="#ffffff"
     bordercolor="#666666"
     borderopacity="1.0"
     inkscape:pageopacity="0.0"
     inkscape:pageshadow="2"
     inkscape:zoom="0.35"
     inkscape:cx="167.52326"
     inkscape:cy="135.45559"
     inkscape:document-units="px"
     inkscape:current-layer="layer1"
     showgrid="false"
     fit-margin-top="0"
     fit-margin-left="0"
     fit-margin-right="0"
     fit-margin-bottom="0"
     inkscape:window-width="551"
     inkscape:window-height="408"
     inkscape:window-x="683"
     inkscape:window-y="323"
     inkscape:window-maximized="0" />
  <metadata
     id="metadata7">
    <rdf:RDF>
      <cc:Work
         rdf:about="">
        <dc:format>image/svg+xml</dc:format>
        <dc:type
           rdf:resource="http://purl.org/dc/dcmitype/StillImage" />
        <dc:title></dc:title>
      </cc:Work>
    </rdf:RDF>
  </metadata>
  <g
     inkscape:label="Layer 1"
     inkscape:groupmode="layer"
     id="layer1"
     transform="translate(-207.47674,-321.58544)">
    <g
       id="g3040"
       transform="matrix(7.1283789,0,0,7.1283789,-1802.4456,-2330.6534)">
      <path
         id="path3042"
         d="m 296,413.5 -10.9,-2.9 c -2.2,-0.6 -3.6,-2.9 -3,-5.1 l 6.6,-24.5 c 0.3,-1.3 1.2,-2.3 2.4,-2.8 l 7.2,-3 1,-1.3 c 1.2,-1.6 3.4,-2.3 5.3,-1.5 l 1.4,0.6 c 0.3,0.1 0.5,0.2 0.8,0.3 l 11.6,4.8 c 1.3,0.6 2.3,1.6 2.7,3 l 7.5,27.8 c 0.6,2.4 -0.8,4.9 -3.2,5.5 l -22.7,6.1 c -2.4,0.6 -4.9,-0.8 -5.5,-3.2 l -1.2,-3.8 0,0 z m 0.2,-35.5 -4.3,1.8 c -0.7,0.3 -1.2,0.8 -1.4,1.6 l -6.6,24.5 c -0.3,1.3 0.4,2.6 1.7,2.9 l 9.9,2.7 -1.5,-5.5 -2.1,1.9 c -0.2,0.1 -0.4,0.2 -0.6,0.1 l -1.3,-0.3 c -0.2,-0.1 -0.4,-0.2 -0.4,-0.5 -0.1,-0.2 0,-0.5 0.2,-0.6 l 3.5,-3.1 -1.1,-4.1 c -1.4,-0.4 -2.4,-1.2 -3,-2.1 -0.6,-0.9 -1,-2.3 -0.5,-4.3 0.3,-1 0.7,-1.7 1.1,-2.2 l -0.3,-1.2 c -0.4,-1.4 -0.1,-2.7 0.8,-3.9 l 5.9,-7.7 0,0 z m 21.5,1.7 -13.8,-5.7 c -1.1,-0.5 -2.4,-0.1 -3.2,0.9 l -9,11.8 c -0.5,0.7 -0.7,1.5 -0.4,2.3 l 7.5,27.9 c 0.4,1.4 1.9,2.3 3.3,1.9 l 22.7,-6.1 c 1.4,-0.4 2.3,-1.9 1.9,-3.3 l -7.5,-27.8 c -0.1,-0.9 -0.7,-1.5 -1.5,-1.9 l 0,0 z m -14.4,-2 c 1.3,-0.4 2.7,0.4 3.1,1.7 0.4,1.3 -0.4,2.7 -1.7,3.1 -1.3,0.4 -2.7,-0.4 -3.1,-1.7 -0.5,-1.3 0.3,-2.7 1.7,-3.1 l 0,0 z m 4.2,20.7 c -0.6,-2.2 -1.8,-3.4 -2.9,-3.9 -0.9,-0.5 -2.3,-0.9 -4.2,-0.4 -1.9,0.5 -3,1.6 -3.5,2.5 -0.6,1 -1.1,2.6 -0.5,4.8 0.6,2.2 1.8,3.4 2.9,4 1.1,0.6 2.6,0.8 4.3,0.4 1.9,-0.5 3,-1.6 3.5,-2.5 0.5,-1.1 1,-2.7 0.4,-4.9 l 0,0 z m -6.3,-1 c 0.7,-0.2 1.1,0.1 1.4,0.3 0.6,0.5 0.9,1.4 1,1.8 0.2,0.6 0.2,1.5 0,2 -0.1,0.4 -0.5,0.8 -1,0.9 -0.5,0.1 -1,0 -1.3,-0.3 -0.6,-0.5 -0.9,-1.4 -1,-1.8 -0.2,-0.6 -0.3,-1.4 -0.1,-1.9 0.1,-0.4 0.3,-0.8 1,-1 l 0,0 z m 4.7,17.6 1.4,-0.4 c 0.2,-0.1 0.4,-0.2 0.5,-0.5 l 7.5,-22.7 c 0.1,-0.3 0,-0.5 -0.2,-0.7 -0.2,-0.2 -0.4,-0.3 -0.7,-0.2 l -1.3,0.4 c -0.2,0.1 -0.4,0.2 -0.5,0.5 l -7.6,22.8 c -0.1,0.3 0,0.5 0.2,0.7 0.2,0.1 0.4,0.2 0.7,0.1 l 0,0 z m 17.9,-10.3 c -0.6,-2.2 -1.8,-3.4 -2.9,-3.9 -0.9,-0.5 -2.3,-0.9 -4.2,-0.4 -1.9,0.5 -3,1.6 -3.5,2.5 -0.6,1 -1.1,2.6 -0.5,4.8 0.6,2.2 1.8,3.4 2.9,4 1.1,0.6 2.6,0.8 4.3,0.4 1.9,-0.5 3,-1.6 3.5,-2.5 0.5,-1.1 1,-2.7 0.4,-4.9 l 0,0 z m -6.3,-1 c 0.7,-0.2 1.1,0.1 1.4,0.3 0.6,0.5 0.9,1.4 1,1.8 0.2,0.6 0.2,1.5 0,2 -0.1,0.4 -0.5,0.8 -1,0.9 -0.5,0.1 -1,0 -1.3,-0.3 -0.6,-0.5 -0.9,-1.4 -1,-1.8 -0.2,-0.6 -0.3,-1.4 -0.1,-1.9 0.1,-0.3 0.4,-0.8 1,-1 l 0,0 0,0 z"
         class="st0"
         inkscape:connector-curvature="0"
         style="fill-rule:evenodd" />
    </g>
  </g>
  <style
     id="style2986"
     type="text/css">
	.st0{fill-rule:evenodd;clip-rule:evenodd;}
</style>
  <style
     id="style3002"
     type="text/css">
	.st0{fill-rule:evenodd;clip-rule:evenodd;}
</style>
  <style
     type="text/css"
     id="style3156">
	.st0{fill-rule:evenodd;clip-rule:evenodd;}
</style>
  <style
     type="text/css"
     id="style3191">
	.st0{fill-rule:evenodd;clip-rule:evenodd;}
</style>
  <style
     type="text/css"
     id="style3258">
	.st0{fill-rule:evenodd;clip-rule:evenodd;}
</style>
  <style
     type="text/css"
     id="style3293">
	.st0{fill-rule:evenodd;clip-rule:evenodd;}
</style>
  <style
     type="text/css"
     id="style3328">
	.st0{fill-rule:evenodd;clip-rule:evenodd;}
</style>
  <style
     id="style3038"
     type="text/css">
	.st0{fill-rule:evenodd;clip-rule:evenodd;}
</style>
</svg>
